<mxfile host="app.diagrams.net" modified="2021-10-28T01:53:24.583Z" agent="5.0 (X11)" etag="rdwsHkbaO4gkIOHAWodo" version="15.2.9" type="github" pages="3">
  <diagram name="Page-1" id="12e1b939-464a-85fe-373e-61e167be1490">
    <mxGraphModel dx="4508.5" dy="1635" grid="1" gridSize="10" guides="1" tooltips="1" connect="1" arrows="1" fold="1" page="1" pageScale="1.5" pageWidth="1169" pageHeight="826" background="none" math="0" shadow="0">
      <root>
        <mxCell id="0" />
        <mxCell id="1" parent="0" />
        <mxCell id="sahA0iktt0Oa_fKXpLNN-71" value="" style="shape=flexArrow;endArrow=classic;html=1;" edge="1" parent="1">
          <mxGeometry width="50" height="50" relative="1" as="geometry">
            <mxPoint x="-1010" y="1288.75" as="sourcePoint" />
            <mxPoint x="-850" y="1288.75" as="targetPoint" />
          </mxGeometry>
        </mxCell>
        <mxCell id="sahA0iktt0Oa_fKXpLNN-72" value="" style="shape=flexArrow;endArrow=classic;html=1;" edge="1" parent="1">
          <mxGeometry width="50" height="50" relative="1" as="geometry">
            <mxPoint x="310" y="1289" as="sourcePoint" />
            <mxPoint x="390" y="1289" as="targetPoint" />
          </mxGeometry>
        </mxCell>
        <mxCell id="sahA0iktt0Oa_fKXpLNN-116" value="" style="group" vertex="1" connectable="0" parent="1">
          <mxGeometry x="410" y="1020" width="550" height="400" as="geometry" />
        </mxCell>
        <mxCell id="sahA0iktt0Oa_fKXpLNN-1" value="" style="whiteSpace=wrap;html=1;fixedSize=1;size=10;fillColor=#dddddd;strokeColor=none;rounded=0;" vertex="1" parent="sahA0iktt0Oa_fKXpLNN-116">
          <mxGeometry width="550.0000000000001" height="66.66666666666667" as="geometry" />
        </mxCell>
        <mxCell id="sahA0iktt0Oa_fKXpLNN-2" value="&lt;font style=&quot;font-size: 25px&quot;&gt;65%&lt;/font&gt;" style="html=1;shape=mxgraph.infographic.ribbonSimple;notch1=0;notch2=20;fillColor=#10739E;strokeColor=none;align=left;verticalAlign=middle;fontColor=#ffffff;fontSize=18;spacingLeft=10;fontStyle=1;shadow=0;" vertex="1" parent="sahA0iktt0Oa_fKXpLNN-116">
          <mxGeometry width="357.5" height="66.66666666666667" as="geometry" />
        </mxCell>
        <mxCell id="sahA0iktt0Oa_fKXpLNN-3" value="" style="whiteSpace=wrap;html=1;fixedSize=1;size=10;fillColor=#dddddd;strokeColor=none;rounded=0;" vertex="1" parent="sahA0iktt0Oa_fKXpLNN-116">
          <mxGeometry y="83.33333333333333" width="550.0000000000001" height="66.66666666666667" as="geometry" />
        </mxCell>
        <mxCell id="sahA0iktt0Oa_fKXpLNN-4" value="&lt;font style=&quot;font-size: 25px&quot;&gt;45%&lt;/font&gt;" style="html=1;shape=mxgraph.infographic.ribbonSimple;notch1=0;notch2=20;fillColor=#F2931E;strokeColor=none;align=left;verticalAlign=middle;fontColor=#ffffff;fontSize=18;spacingLeft=10;fontStyle=1;shadow=0;" vertex="1" parent="sahA0iktt0Oa_fKXpLNN-116">
          <mxGeometry y="83.33333333333333" width="247.50000000000006" height="66.66666666666667" as="geometry" />
        </mxCell>
        <mxCell id="sahA0iktt0Oa_fKXpLNN-5" value="" style="whiteSpace=wrap;html=1;fixedSize=1;size=10;fillColor=#dddddd;strokeColor=none;rounded=0;" vertex="1" parent="sahA0iktt0Oa_fKXpLNN-116">
          <mxGeometry y="166.66666666666666" width="550.0000000000001" height="66.66666666666667" as="geometry" />
        </mxCell>
        <mxCell id="sahA0iktt0Oa_fKXpLNN-6" value="&lt;font style=&quot;font-size: 25px&quot;&gt;30%&lt;/font&gt;" style="html=1;shape=mxgraph.infographic.ribbonSimple;notch1=0;notch2=20;fillColor=#AE4132;strokeColor=none;align=left;verticalAlign=middle;fontColor=#ffffff;fontSize=18;spacingLeft=10;fontStyle=1;shadow=0;" vertex="1" parent="sahA0iktt0Oa_fKXpLNN-116">
          <mxGeometry y="166.66666666666666" width="165" height="66.66666666666667" as="geometry" />
        </mxCell>
        <mxCell id="sahA0iktt0Oa_fKXpLNN-7" value="" style="whiteSpace=wrap;html=1;fixedSize=1;size=10;fillColor=#dddddd;strokeColor=none;rounded=0;" vertex="1" parent="sahA0iktt0Oa_fKXpLNN-116">
          <mxGeometry y="250" width="550.0000000000001" height="66.66666666666667" as="geometry" />
        </mxCell>
        <mxCell id="sahA0iktt0Oa_fKXpLNN-8" value="&lt;font style=&quot;font-size: 25px&quot;&gt;60%&lt;/font&gt;" style="html=1;shape=mxgraph.infographic.ribbonSimple;notch1=0;notch2=20;fillColor=#23445D;strokeColor=none;align=left;verticalAlign=middle;fontColor=#ffffff;fontSize=18;spacingLeft=10;fontStyle=1;shadow=0;" vertex="1" parent="sahA0iktt0Oa_fKXpLNN-116">
          <mxGeometry y="250" width="330" height="66.66666666666667" as="geometry" />
        </mxCell>
        <mxCell id="sahA0iktt0Oa_fKXpLNN-9" value="" style="whiteSpace=wrap;html=1;fixedSize=1;size=10;fillColor=#dddddd;strokeColor=none;rounded=0;" vertex="1" parent="sahA0iktt0Oa_fKXpLNN-116">
          <mxGeometry y="333.3333333333333" width="550.0000000000001" height="66.66666666666667" as="geometry" />
        </mxCell>
        <mxCell id="sahA0iktt0Oa_fKXpLNN-10" value="&lt;font style=&quot;font-size: 25px&quot;&gt;85%&lt;/font&gt;" style="html=1;shape=mxgraph.infographic.ribbonSimple;notch1=0;notch2=20;fillColor=#12AAB5;strokeColor=none;align=left;verticalAlign=middle;fontColor=#ffffff;fontSize=18;spacingLeft=10;fontStyle=1;shadow=0;" vertex="1" parent="sahA0iktt0Oa_fKXpLNN-116">
          <mxGeometry y="333.3333333333333" width="467.50000000000006" height="66.66666666666667" as="geometry" />
        </mxCell>
        <mxCell id="sahA0iktt0Oa_fKXpLNN-11" value="&lt;font style=&quot;font-size: 25px&quot;&gt;场景10&lt;/font&gt;" style="text;html=1;strokeColor=none;fillColor=none;align=right;verticalAlign=middle;whiteSpace=wrap;rounded=0;shadow=0;fontSize=18;spacingRight=10;" vertex="1" parent="sahA0iktt0Oa_fKXpLNN-116">
          <mxGeometry x="440" width="110" height="66.66666666666667" as="geometry" />
        </mxCell>
        <mxCell id="sahA0iktt0Oa_fKXpLNN-12" value="&lt;font style=&quot;font-size: 25px&quot;&gt;场景81&lt;/font&gt;" style="text;html=1;strokeColor=none;fillColor=none;align=right;verticalAlign=middle;whiteSpace=wrap;rounded=0;shadow=0;fontSize=18;spacingRight=10;" vertex="1" parent="sahA0iktt0Oa_fKXpLNN-116">
          <mxGeometry x="440" y="83.33333333333333" width="110" height="66.66666666666667" as="geometry" />
        </mxCell>
        <mxCell id="sahA0iktt0Oa_fKXpLNN-13" value="&lt;font style=&quot;font-size: 25px&quot;&gt;场景177&lt;/font&gt;" style="text;html=1;strokeColor=none;fillColor=none;align=right;verticalAlign=middle;whiteSpace=wrap;rounded=0;shadow=0;fontSize=18;spacingRight=10;" vertex="1" parent="sahA0iktt0Oa_fKXpLNN-116">
          <mxGeometry x="440" y="166.66666666666666" width="110" height="66.66666666666667" as="geometry" />
        </mxCell>
        <mxCell id="sahA0iktt0Oa_fKXpLNN-14" value="&lt;font style=&quot;font-size: 25px&quot;&gt;场景18&lt;/font&gt;" style="text;html=1;strokeColor=none;fillColor=none;align=right;verticalAlign=middle;whiteSpace=wrap;rounded=0;shadow=0;fontSize=18;spacingRight=10;" vertex="1" parent="sahA0iktt0Oa_fKXpLNN-116">
          <mxGeometry x="440" y="250" width="110" height="66.66666666666667" as="geometry" />
        </mxCell>
        <mxCell id="sahA0iktt0Oa_fKXpLNN-15" value="&lt;font style=&quot;font-size: 25px&quot;&gt;场景5&lt;/font&gt;" style="text;html=1;strokeColor=none;fillColor=none;align=right;verticalAlign=middle;whiteSpace=wrap;rounded=0;shadow=0;fontSize=18;spacingRight=10;" vertex="1" parent="sahA0iktt0Oa_fKXpLNN-116">
          <mxGeometry x="440" y="333.3333333333333" width="110" height="66.66666666666667" as="geometry" />
        </mxCell>
        <mxCell id="sahA0iktt0Oa_fKXpLNN-117" value="" style="shape=flexArrow;endArrow=classic;html=1;" edge="1" parent="1">
          <mxGeometry width="50" height="50" relative="1" as="geometry">
            <mxPoint x="-650" y="1570" as="sourcePoint" />
            <mxPoint x="-651.4300000000001" y="1490" as="targetPoint" />
          </mxGeometry>
        </mxCell>
        <mxCell id="sahA0iktt0Oa_fKXpLNN-124" value="" style="group" vertex="1" connectable="0" parent="1">
          <mxGeometry x="410" y="1560" width="440" height="400" as="geometry" />
        </mxCell>
        <mxCell id="sahA0iktt0Oa_fKXpLNN-118" value="" style="verticalLabelPosition=bottom;verticalAlign=top;html=1;shape=mxgraph.basic.partConcEllipse;fillColor=#10739E;strokeColor=#ffffff;startAngle=0.75;endAngle=0.08;arcWidth=0.16;strokeWidth=3;fontSize=28;" vertex="1" parent="sahA0iktt0Oa_fKXpLNN-124">
          <mxGeometry width="440" height="400" as="geometry" />
        </mxCell>
        <mxCell id="sahA0iktt0Oa_fKXpLNN-119" value="" style="verticalLabelPosition=bottom;verticalAlign=top;html=1;shape=mxgraph.basic.partConcEllipse;fillColor=#F2931E;strokeColor=#ffffff;startAngle=0.91;endAngle=0.17;arcWidth=0.18;strokeWidth=3;fontSize=28;" vertex="1" parent="sahA0iktt0Oa_fKXpLNN-124">
          <mxGeometry x="33.84615384615385" y="30.769230769230774" width="372.3076923076923" height="338.46153846153845" as="geometry" />
        </mxCell>
        <mxCell id="sahA0iktt0Oa_fKXpLNN-120" value="" style="verticalLabelPosition=bottom;verticalAlign=top;html=1;shape=mxgraph.basic.partConcEllipse;fillColor=#AE4132;strokeColor=#ffffff;startAngle=0.75;endAngle=0.11;arcWidth=0.22;strokeWidth=3;fontSize=28;" vertex="1" parent="sahA0iktt0Oa_fKXpLNN-124">
          <mxGeometry x="67.6923076923077" y="61.53846153846155" width="304.6153846153846" height="276.9230769230769" as="geometry" />
        </mxCell>
        <mxCell id="sahA0iktt0Oa_fKXpLNN-121" value="" style="verticalLabelPosition=bottom;verticalAlign=top;html=1;shape=mxgraph.basic.partConcEllipse;fillColor=#12AAB5;strokeColor=#ffffff;startAngle=0.02;endAngle=0.25;arcWidth=0.29;strokeWidth=3;fontSize=28;" vertex="1" parent="sahA0iktt0Oa_fKXpLNN-124">
          <mxGeometry x="101.53846153846153" y="92.30769230769232" width="236.92307692307688" height="215.3846153846154" as="geometry" />
        </mxCell>
        <mxCell id="sahA0iktt0Oa_fKXpLNN-122" value="模型训练" style="verticalLabelPosition=bottom;verticalAlign=top;html=1;shape=mxgraph.basic.partConcEllipse;fillColor=#CCCCCC;strokeColor=#ffffff;startAngle=0.75;endAngle=0.25;arcWidth=0.4;strokeWidth=3;fontSize=28;" vertex="1" parent="sahA0iktt0Oa_fKXpLNN-124">
          <mxGeometry x="135.3846153846154" y="123.0769230769231" width="169.23076923076923" height="153.84615384615384" as="geometry" />
        </mxCell>
        <mxCell id="sahA0iktt0Oa_fKXpLNN-123" value="" style="html=1;shape=mxgraph.basic.pie;fillColor=#23445D;strokeColor=#ffffff;startAngle=0.75;endAngle=0.25;fontSize=16;fontColor=#FFFFFF;verticalAlign=top;fontStyle=1;strokeWidth=3;" vertex="1" parent="sahA0iktt0Oa_fKXpLNN-124">
          <mxGeometry x="169.23076923076923" y="153.84615384615384" width="101.53846153846153" height="92.30769230769232" as="geometry" />
        </mxCell>
        <mxCell id="sahA0iktt0Oa_fKXpLNN-125" value="" style="shape=flexArrow;endArrow=classic;html=1;" edge="1" parent="1">
          <mxGeometry width="50" height="50" relative="1" as="geometry">
            <mxPoint x="610" y="1500" as="sourcePoint" />
            <mxPoint x="609.5799999999999" y="1550" as="targetPoint" />
          </mxGeometry>
        </mxCell>
        <mxCell id="sahA0iktt0Oa_fKXpLNN-145" value="" style="group" vertex="1" connectable="0" parent="1">
          <mxGeometry x="-240" y="1620" width="410" height="360" as="geometry" />
        </mxCell>
        <mxCell id="sahA0iktt0Oa_fKXpLNN-143" value="" style="group" vertex="1" connectable="0" parent="sahA0iktt0Oa_fKXpLNN-145">
          <mxGeometry width="410" height="273.85892116182566" as="geometry" />
        </mxCell>
        <mxCell id="sahA0iktt0Oa_fKXpLNN-138" value="" style="verticalLabelPosition=bottom;verticalAlign=top;html=1;shape=mxgraph.infographic.shadedCube;isoAngle=15;fillColor=#12AAB5;strokeColor=none;shadow=0;fontSize=28;" vertex="1" parent="sahA0iktt0Oa_fKXpLNN-143">
          <mxGeometry x="292.85714285714283" width="117.14285714285712" height="162.45868204515085" as="geometry" />
        </mxCell>
        <mxCell id="sahA0iktt0Oa_fKXpLNN-139" value="" style="verticalLabelPosition=bottom;verticalAlign=top;html=1;shape=mxgraph.infographic.shadedCube;isoAngle=15;fillColor=#23445D;strokeColor=none;shadow=0;fontSize=28;" vertex="1" parent="sahA0iktt0Oa_fKXpLNN-143">
          <mxGeometry x="219.64285714285717" y="74.26682607778325" width="117.14285714285712" height="116.04191574653632" as="geometry" />
        </mxCell>
        <mxCell id="sahA0iktt0Oa_fKXpLNN-140" value="" style="verticalLabelPosition=bottom;verticalAlign=top;html=1;shape=mxgraph.infographic.shadedCube;isoAngle=15;fillColor=#AE4132;strokeColor=none;shadow=0;fontSize=28;" vertex="1" parent="sahA0iktt0Oa_fKXpLNN-143">
          <mxGeometry x="146.42857142857142" y="9.283353259722906" width="117.14285714285712" height="208.87544834376538" as="geometry" />
        </mxCell>
        <mxCell id="sahA0iktt0Oa_fKXpLNN-141" value="" style="verticalLabelPosition=bottom;verticalAlign=top;html=1;shape=mxgraph.infographic.shadedCube;isoAngle=15;fillColor=#F2931E;strokeColor=none;shadow=0;fontSize=28;" vertex="1" parent="sahA0iktt0Oa_fKXpLNN-143">
          <mxGeometry x="73.21428571428571" y="13.925029889584357" width="117.14285714285712" height="232.08383149307264" as="geometry" />
        </mxCell>
        <mxCell id="sahA0iktt0Oa_fKXpLNN-142" value="" style="verticalLabelPosition=bottom;verticalAlign=top;html=1;shape=mxgraph.infographic.shadedCube;isoAngle=15;fillColor=#10739E;strokeColor=none;shadow=0;fontSize=28;" vertex="1" parent="sahA0iktt0Oa_fKXpLNN-143">
          <mxGeometry y="88.19185596736762" width="117.14285714285712" height="185.6670651944581" as="geometry" />
        </mxCell>
        <mxCell id="sahA0iktt0Oa_fKXpLNN-144" value="模型评估" style="text;html=1;strokeColor=none;fillColor=none;align=center;verticalAlign=middle;whiteSpace=wrap;rounded=0;fontSize=26;" vertex="1" parent="sahA0iktt0Oa_fKXpLNN-145">
          <mxGeometry x="128.125" y="315.18672199170123" width="172.96875" height="44.813278008298745" as="geometry" />
        </mxCell>
        <mxCell id="sahA0iktt0Oa_fKXpLNN-146" value="" style="group;fontSize=15;" vertex="1" connectable="0" parent="1">
          <mxGeometry x="-890" y="1060" width="480" height="360" as="geometry" />
        </mxCell>
        <mxCell id="sahA0iktt0Oa_fKXpLNN-41" value="数据挖掘" style="triangle;whiteSpace=wrap;html=1;shadow=0;strokeColor=#FFFFFF;strokeWidth=6;fillColor=#10739E;fontSize=22;fontColor=#FFFFFF;align=center;direction=north;fontStyle=1" vertex="1" parent="sahA0iktt0Oa_fKXpLNN-146">
          <mxGeometry x="120" width="240" height="180" as="geometry" />
        </mxCell>
        <mxCell id="sahA0iktt0Oa_fKXpLNN-42" value="神经网络" style="triangle;whiteSpace=wrap;html=1;shadow=0;strokeColor=#FFFFFF;strokeWidth=6;fillColor=#F2931E;fontSize=22;fontColor=#FFFFFF;align=center;direction=north;fontStyle=1" vertex="1" parent="sahA0iktt0Oa_fKXpLNN-146">
          <mxGeometry y="180" width="240" height="180" as="geometry" />
        </mxCell>
        <mxCell id="sahA0iktt0Oa_fKXpLNN-43" value="图像识别" style="triangle;whiteSpace=wrap;html=1;shadow=0;strokeColor=#FFFFFF;strokeWidth=6;fillColor=#AE4132;fontSize=22;fontColor=#FFFFFF;align=center;direction=south;fontStyle=1" vertex="1" parent="sahA0iktt0Oa_fKXpLNN-146">
          <mxGeometry x="120" y="180" width="240" height="180" as="geometry" />
        </mxCell>
        <mxCell id="sahA0iktt0Oa_fKXpLNN-44" value="意图识别" style="triangle;whiteSpace=wrap;html=1;shadow=0;strokeColor=#FFFFFF;strokeWidth=6;fillColor=#23445D;fontSize=22;fontColor=#FFFFFF;align=center;direction=north;fontStyle=1" vertex="1" parent="sahA0iktt0Oa_fKXpLNN-146">
          <mxGeometry x="240" y="180" width="240" height="180" as="geometry" />
        </mxCell>
        <mxCell id="sahA0iktt0Oa_fKXpLNN-149" value="" style="group" vertex="1" connectable="0" parent="1">
          <mxGeometry x="-240" y="1010" width="540" height="520" as="geometry" />
        </mxCell>
        <mxCell id="sahA0iktt0Oa_fKXpLNN-16" value="" style="html=1;shape=mxgraph.infographic.ribbonSimple;notch1=20;notch2=0;fillColor=#10739E;strokeColor=none;shadow=1;" vertex="1" parent="sahA0iktt0Oa_fKXpLNN-149">
          <mxGeometry width="529.4117647058822" height="88.13559322033898" as="geometry" />
        </mxCell>
        <mxCell id="sahA0iktt0Oa_fKXpLNN-17" value="" style="shape=step;perimeter=stepPerimeter;whiteSpace=wrap;html=1;fixedSize=1;shadow=0;strokeColor=none;strokeWidth=6;fillColor=#CCCCCC;size=20;" vertex="1" parent="sahA0iktt0Oa_fKXpLNN-16">
          <mxGeometry y="0.5" width="30" height="40" relative="1" as="geometry">
            <mxPoint x="150" y="-20" as="offset" />
          </mxGeometry>
        </mxCell>
        <mxCell id="sahA0iktt0Oa_fKXpLNN-18" value="&lt;font style=&quot;font-size: 22px&quot;&gt;&lt;b&gt;游戏&lt;/b&gt;&lt;/font&gt;&lt;br&gt;&lt;div style=&quot;font-size: 20px&quot;&gt;&lt;font style=&quot;font-size: 20px&quot;&gt;RGP，角色扮演、二次元&lt;/font&gt;&lt;/div&gt;&lt;div style=&quot;font-size: 20px&quot;&gt;&lt;font style=&quot;font-size: 20px&quot;&gt;&lt;font style=&quot;font-size: 20px&quot;&gt;双人、古代换装、做饭&lt;/font&gt;&lt;br&gt;&lt;/font&gt;&lt;/div&gt;" style="text;strokeColor=none;fillColor=none;spacing=5;spacingTop=0;whiteSpace=wrap;overflow=hidden;rounded=0;shadow=0;fontSize=15;fontColor=#FFFFFF;align=left;html=1;" vertex="1" parent="sahA0iktt0Oa_fKXpLNN-16">
          <mxGeometry width="230" height="100" relative="1" as="geometry">
            <mxPoint x="200" as="offset" />
          </mxGeometry>
        </mxCell>
        <mxCell id="sahA0iktt0Oa_fKXpLNN-19" value="Label" style="shape=manualInput;whiteSpace=wrap;html=1;shadow=1;strokeColor=none;fillColor=#dddddd;fontSize=15;fontColor=#444444;align=right;direction=south;flipH=1;shadow=1;spacing=10;fontStyle=1;" vertex="1" parent="sahA0iktt0Oa_fKXpLNN-149">
          <mxGeometry x="434.1176470588235" y="44.06779661016949" width="105.88235294117646" height="52.881355932203384" as="geometry" />
        </mxCell>
        <mxCell id="sahA0iktt0Oa_fKXpLNN-20" value="" style="shadow=0;dashed=0;html=1;strokeColor=none;shape=mxgraph.mscae.intune.user_group;fontSize=15;fontColor=#FFFFFF;align=left;" vertex="1" parent="sahA0iktt0Oa_fKXpLNN-149">
          <mxGeometry x="52.94117647058823" y="28.20338983050847" width="52.94117647058823" height="32.61016949152542" as="geometry" />
        </mxCell>
        <mxCell id="sahA0iktt0Oa_fKXpLNN-21" value="" style="html=1;shape=mxgraph.infographic.ribbonSimple;notch1=20;notch2=0;fillColor=#F2931E;strokeColor=none;shadow=1;" vertex="1" parent="sahA0iktt0Oa_fKXpLNN-149">
          <mxGeometry y="105.76271186440677" width="529.4117647058822" height="88.13559322033898" as="geometry" />
        </mxCell>
        <mxCell id="sahA0iktt0Oa_fKXpLNN-22" value="" style="shape=step;perimeter=stepPerimeter;whiteSpace=wrap;html=1;fixedSize=1;shadow=0;strokeColor=none;strokeWidth=6;fillColor=#CCCCCC;size=20;" vertex="1" parent="sahA0iktt0Oa_fKXpLNN-21">
          <mxGeometry y="0.5" width="30" height="40" relative="1" as="geometry">
            <mxPoint x="150" y="-20" as="offset" />
          </mxGeometry>
        </mxCell>
        <mxCell id="sahA0iktt0Oa_fKXpLNN-23" value="&lt;font size=&quot;1&quot;&gt;&lt;b style=&quot;font-size: 22px&quot;&gt;影视&lt;/b&gt;&lt;/font&gt;&lt;br&gt;&lt;div style=&quot;font-size: 20px&quot;&gt;&lt;font style=&quot;font-size: 20px&quot;&gt;华语，动作，伦理、爱情&lt;/font&gt;&lt;/div&gt;&lt;div style=&quot;font-size: 20px&quot;&gt;&lt;font style=&quot;font-size: 20px&quot;&gt;宫斗、古装、军事、战争&lt;/font&gt;&lt;/div&gt;" style="text;strokeColor=none;fillColor=none;spacing=5;spacingTop=0;whiteSpace=wrap;overflow=hidden;rounded=0;shadow=0;fontSize=15;fontColor=#FFFFFF;align=left;html=1;" vertex="1" parent="sahA0iktt0Oa_fKXpLNN-21">
          <mxGeometry width="230" height="100" relative="1" as="geometry">
            <mxPoint x="200" as="offset" />
          </mxGeometry>
        </mxCell>
        <mxCell id="sahA0iktt0Oa_fKXpLNN-24" value="Label" style="shape=manualInput;whiteSpace=wrap;html=1;shadow=1;strokeColor=none;fillColor=#dddddd;fontSize=15;fontColor=#444444;align=right;direction=south;flipH=1;shadow=1;spacing=10;fontStyle=1;" vertex="1" parent="sahA0iktt0Oa_fKXpLNN-149">
          <mxGeometry x="434.1176470588235" y="149.83050847457622" width="105.88235294117646" height="52.881355932203384" as="geometry" />
        </mxCell>
        <mxCell id="sahA0iktt0Oa_fKXpLNN-25" value="" style="shadow=0;dashed=0;html=1;strokeColor=none;shape=mxgraph.mscae.intune.user_group;fontSize=15;fontColor=#FFFFFF;align=left;" vertex="1" parent="sahA0iktt0Oa_fKXpLNN-149">
          <mxGeometry x="52.94117647058823" y="133.96610169491524" width="52.94117647058823" height="32.61016949152542" as="geometry" />
        </mxCell>
        <mxCell id="sahA0iktt0Oa_fKXpLNN-26" value="" style="html=1;shape=mxgraph.infographic.ribbonSimple;notch1=20;notch2=0;fillColor=#AE4132;strokeColor=none;shadow=1;" vertex="1" parent="sahA0iktt0Oa_fKXpLNN-149">
          <mxGeometry y="211.52542372881354" width="529.4117647058822" height="88.13559322033898" as="geometry" />
        </mxCell>
        <mxCell id="sahA0iktt0Oa_fKXpLNN-27" value="" style="shape=step;perimeter=stepPerimeter;whiteSpace=wrap;html=1;fixedSize=1;shadow=0;strokeColor=none;strokeWidth=6;fillColor=#CCCCCC;size=20;" vertex="1" parent="sahA0iktt0Oa_fKXpLNN-26">
          <mxGeometry y="0.5" width="30" height="40" relative="1" as="geometry">
            <mxPoint x="150" y="-20" as="offset" />
          </mxGeometry>
        </mxCell>
        <mxCell id="sahA0iktt0Oa_fKXpLNN-28" value="&lt;font style=&quot;font-size: 22px&quot;&gt;&lt;b&gt;剧本杀&lt;/b&gt;&lt;/font&gt;&lt;br&gt;&lt;div style=&quot;font-size: 20px&quot;&gt;&lt;font style=&quot;font-size: 20px&quot;&gt;服饰、策略、剧本&lt;/font&gt;&lt;/div&gt;&lt;div style=&quot;font-size: 20px&quot;&gt;&lt;font style=&quot;font-size: 20px&quot;&gt;合作、团队、英语&lt;br&gt;&lt;/font&gt;&lt;/div&gt;" style="text;strokeColor=none;fillColor=none;spacing=5;spacingTop=0;whiteSpace=wrap;overflow=hidden;rounded=0;shadow=0;fontSize=15;fontColor=#FFFFFF;align=left;html=1;" vertex="1" parent="sahA0iktt0Oa_fKXpLNN-26">
          <mxGeometry width="230" height="100" relative="1" as="geometry">
            <mxPoint x="200" as="offset" />
          </mxGeometry>
        </mxCell>
        <mxCell id="sahA0iktt0Oa_fKXpLNN-29" value="Label" style="shape=manualInput;whiteSpace=wrap;html=1;shadow=1;strokeColor=none;fillColor=#dddddd;fontSize=15;fontColor=#444444;align=right;direction=south;flipH=1;shadow=1;spacing=10;fontStyle=1;" vertex="1" parent="sahA0iktt0Oa_fKXpLNN-149">
          <mxGeometry x="434.1176470588235" y="255.593220338983" width="105.88235294117646" height="52.881355932203384" as="geometry" />
        </mxCell>
        <mxCell id="sahA0iktt0Oa_fKXpLNN-30" value="" style="shadow=0;dashed=0;html=1;strokeColor=none;shape=mxgraph.mscae.intune.user_group;fontSize=15;fontColor=#FFFFFF;align=left;" vertex="1" parent="sahA0iktt0Oa_fKXpLNN-149">
          <mxGeometry x="52.94117647058823" y="239.728813559322" width="52.94117647058823" height="32.61016949152542" as="geometry" />
        </mxCell>
        <mxCell id="sahA0iktt0Oa_fKXpLNN-31" value="" style="html=1;shape=mxgraph.infographic.ribbonSimple;notch1=20;notch2=0;fillColor=#23445D;strokeColor=none;shadow=1;" vertex="1" parent="sahA0iktt0Oa_fKXpLNN-149">
          <mxGeometry y="317.28813559322026" width="529.4117647058822" height="88.13559322033898" as="geometry" />
        </mxCell>
        <mxCell id="sahA0iktt0Oa_fKXpLNN-32" value="" style="shape=step;perimeter=stepPerimeter;whiteSpace=wrap;html=1;fixedSize=1;shadow=0;strokeColor=none;strokeWidth=6;fillColor=#CCCCCC;size=20;" vertex="1" parent="sahA0iktt0Oa_fKXpLNN-31">
          <mxGeometry y="0.5" width="30" height="40" relative="1" as="geometry">
            <mxPoint x="150" y="-20" as="offset" />
          </mxGeometry>
        </mxCell>
        <mxCell id="sahA0iktt0Oa_fKXpLNN-33" value="&lt;font style=&quot;font-size: 22px&quot;&gt;&lt;b&gt;购物&lt;/b&gt;&lt;/font&gt;&lt;font style=&quot;font-size: 20px&quot;&gt;&lt;br&gt;&lt;/font&gt;&lt;div style=&quot;font-size: 20px&quot;&gt;&lt;font style=&quot;font-size: 20px&quot;&gt;服饰、男装、彩妆、护肤&lt;/font&gt;&lt;/div&gt;&lt;div style=&quot;font-size: 20px&quot;&gt;&lt;font style=&quot;font-size: 20px&quot;&gt;&lt;font style=&quot;font-size: 20px&quot;&gt;母婴、个护、数码、家电&lt;/font&gt;&lt;br&gt;&lt;/font&gt;&lt;/div&gt;" style="text;strokeColor=none;fillColor=none;spacing=5;spacingTop=0;whiteSpace=wrap;overflow=hidden;rounded=0;shadow=0;fontSize=15;fontColor=#FFFFFF;align=left;html=1;" vertex="1" parent="sahA0iktt0Oa_fKXpLNN-31">
          <mxGeometry width="230" height="100" relative="1" as="geometry">
            <mxPoint x="200" as="offset" />
          </mxGeometry>
        </mxCell>
        <mxCell id="sahA0iktt0Oa_fKXpLNN-34" value="Label" style="shape=manualInput;whiteSpace=wrap;html=1;shadow=1;strokeColor=none;fillColor=#dddddd;fontSize=15;fontColor=#444444;align=right;direction=south;flipH=1;shadow=1;spacing=10;fontStyle=1;" vertex="1" parent="sahA0iktt0Oa_fKXpLNN-149">
          <mxGeometry x="434.1176470588235" y="361.3559322033898" width="105.88235294117646" height="52.881355932203384" as="geometry" />
        </mxCell>
        <mxCell id="sahA0iktt0Oa_fKXpLNN-35" value="" style="shadow=0;dashed=0;html=1;strokeColor=none;shape=mxgraph.mscae.intune.user_group;fontSize=15;fontColor=#FFFFFF;align=left;" vertex="1" parent="sahA0iktt0Oa_fKXpLNN-149">
          <mxGeometry x="52.94117647058823" y="345.4915254237288" width="52.94117647058823" height="32.61016949152542" as="geometry" />
        </mxCell>
        <mxCell id="sahA0iktt0Oa_fKXpLNN-36" value="" style="html=1;shape=mxgraph.infographic.ribbonSimple;notch1=20;notch2=0;fillColor=#12AAB5;strokeColor=none;shadow=1;" vertex="1" parent="sahA0iktt0Oa_fKXpLNN-149">
          <mxGeometry y="423.05084745762707" width="529.4117647058822" height="88.13559322033898" as="geometry" />
        </mxCell>
        <mxCell id="sahA0iktt0Oa_fKXpLNN-37" value="" style="shape=step;perimeter=stepPerimeter;whiteSpace=wrap;html=1;fixedSize=1;shadow=0;strokeColor=none;strokeWidth=6;fillColor=#CCCCCC;size=20;" vertex="1" parent="sahA0iktt0Oa_fKXpLNN-36">
          <mxGeometry y="0.5" width="30" height="40" relative="1" as="geometry">
            <mxPoint x="150" y="-20" as="offset" />
          </mxGeometry>
        </mxCell>
        <mxCell id="sahA0iktt0Oa_fKXpLNN-38" value="&lt;font style=&quot;font-size: 22px&quot;&gt;假日&lt;/font&gt;&lt;br&gt;&lt;div style=&quot;font-size: 20px&quot;&gt;&lt;font style=&quot;font-size: 20px&quot;&gt;休闲、养生、旅游、桌游&lt;/font&gt;&lt;/div&gt;&lt;div style=&quot;font-size: 20px&quot;&gt;&lt;font style=&quot;font-size: 20px&quot;&gt;&lt;font style=&quot;font-size: 20px&quot;&gt;商场、约会、酒店、刷剧&lt;/font&gt;&lt;br&gt;&lt;/font&gt;&lt;/div&gt;" style="text;strokeColor=none;fillColor=none;spacing=5;spacingTop=0;whiteSpace=wrap;overflow=hidden;rounded=0;shadow=0;fontSize=15;fontColor=#FFFFFF;align=left;html=1;" vertex="1" parent="sahA0iktt0Oa_fKXpLNN-36">
          <mxGeometry width="230" height="100" relative="1" as="geometry">
            <mxPoint x="200" as="offset" />
          </mxGeometry>
        </mxCell>
        <mxCell id="sahA0iktt0Oa_fKXpLNN-39" value="Label" style="shape=manualInput;whiteSpace=wrap;html=1;shadow=1;strokeColor=none;fillColor=#dddddd;fontSize=15;fontColor=#444444;align=right;direction=south;flipH=1;shadow=1;spacing=10;fontStyle=1;" vertex="1" parent="sahA0iktt0Oa_fKXpLNN-149">
          <mxGeometry x="434.1176470588235" y="467.11864406779654" width="105.88235294117646" height="52.881355932203384" as="geometry" />
        </mxCell>
        <mxCell id="sahA0iktt0Oa_fKXpLNN-40" value="" style="shadow=0;dashed=0;html=1;strokeColor=none;shape=mxgraph.mscae.intune.user_group;fontSize=15;fontColor=#FFFFFF;align=left;" vertex="1" parent="sahA0iktt0Oa_fKXpLNN-149">
          <mxGeometry x="52.94117647058823" y="451.2542372881355" width="52.94117647058823" height="32.61016949152542" as="geometry" />
        </mxCell>
        <mxCell id="sahA0iktt0Oa_fKXpLNN-150" value="" style="group" vertex="1" connectable="0" parent="1">
          <mxGeometry x="-450" y="1030" width="200" height="470" as="geometry" />
        </mxCell>
        <mxCell id="sahA0iktt0Oa_fKXpLNN-50" value="" style="strokeWidth=1;shadow=0;dashed=0;align=center;html=1;shape=mxgraph.mockup.text.callout;linkText=;textSize=17;textColor=#666666;callDir=NW;callStyle=line;fontSize=17;fontColor=#10739E;align=left;verticalAlign=top;strokeColor=#666666;fillColor=#4D9900;flipV=0;fontStyle=1;rotation=-180;" vertex="1" parent="sahA0iktt0Oa_fKXpLNN-150">
          <mxGeometry x="6.655574043261232" y="276.36704119850185" width="193.34442595673877" height="89.77528089887639" as="geometry" />
        </mxCell>
        <mxCell id="sahA0iktt0Oa_fKXpLNN-60" value="" style="strokeWidth=1;shadow=0;dashed=0;align=center;html=1;shape=mxgraph.mockup.text.callout;linkText=;textSize=17;textColor=#666666;callDir=NW;callStyle=line;fontSize=17;fontColor=#10739E;align=left;verticalAlign=top;strokeColor=#666666;fillColor=#4D9900;flipV=0;fontStyle=1;rotation=-180;" vertex="1" parent="sahA0iktt0Oa_fKXpLNN-150">
          <mxGeometry x="6.655574043261232" y="311.5730337078652" width="193.34442595673877" height="158.42696629213484" as="geometry" />
        </mxCell>
        <mxCell id="sahA0iktt0Oa_fKXpLNN-61" value="" style="strokeWidth=1;shadow=0;dashed=0;align=center;html=1;shape=mxgraph.mockup.text.callout;linkText=;textSize=17;textColor=#666666;callDir=NW;callStyle=line;fontSize=17;fontColor=#10739E;align=left;verticalAlign=top;strokeColor=#666666;fillColor=#4D9900;flipV=0;fontStyle=1;rotation=-180;" vertex="1" parent="sahA0iktt0Oa_fKXpLNN-150">
          <mxGeometry y="220.0374531835206" width="193.34442595673877" height="20.243445692883896" as="geometry" />
        </mxCell>
        <mxCell id="sahA0iktt0Oa_fKXpLNN-62" value="" style="strokeWidth=1;shadow=0;dashed=0;align=center;html=1;shape=mxgraph.mockup.text.callout;linkText=;textSize=17;textColor=#666666;callDir=NW;callStyle=line;fontSize=17;fontColor=#10739E;align=left;verticalAlign=top;strokeColor=#666666;fillColor=#4D9900;flipV=1;fontStyle=1;rotation=-180;flipH=0;" vertex="1" parent="sahA0iktt0Oa_fKXpLNN-150">
          <mxGeometry x="0.3327787021630616" y="91.53558052434457" width="186.68885191347755" height="91.53558052434457" as="geometry" />
        </mxCell>
        <mxCell id="sahA0iktt0Oa_fKXpLNN-63" value="" style="strokeWidth=1;shadow=0;dashed=0;align=center;html=1;shape=mxgraph.mockup.text.callout;linkText=;textSize=17;textColor=#666666;callDir=NW;callStyle=line;fontSize=17;fontColor=#10739E;align=left;verticalAlign=top;strokeColor=#666666;fillColor=#4D9900;flipV=1;fontStyle=1;rotation=-180;flipH=0;" vertex="1" parent="sahA0iktt0Oa_fKXpLNN-150">
          <mxGeometry x="0.3327787021630616" width="186.68885191347755" height="132.02247191011236" as="geometry" />
        </mxCell>
        <mxCell id="sahA0iktt0Oa_fKXpLNN-151" value="" style="group" vertex="1" connectable="0" parent="1">
          <mxGeometry x="-1340" y="1120" width="320" height="345.5" as="geometry" />
        </mxCell>
        <mxCell id="sahA0iktt0Oa_fKXpLNN-64" value="时间" style="shape=hexagon;strokeWidth=4;html=1;fillColor=#F5AB50;strokeColor=#ffffff;shadow=0;fontSize=28;fontColor=#FFFFFF;align=center;fontStyle=0;whiteSpace=wrap;spacing=10;rounded=0;" vertex="1" parent="sahA0iktt0Oa_fKXpLNN-151">
          <mxGeometry y="57.583333333333336" width="128" height="115.16666666666667" as="geometry" />
        </mxCell>
        <mxCell id="sahA0iktt0Oa_fKXpLNN-65" value="习惯" style="shape=hexagon;strokeWidth=4;html=1;fillColor=#E85642;strokeColor=#ffffff;shadow=0;fontSize=28;fontColor=#FFFFFF;align=center;fontStyle=0;whiteSpace=wrap;spacing=10;rounded=0;" vertex="1" parent="sahA0iktt0Oa_fKXpLNN-151">
          <mxGeometry y="172.75" width="128" height="115.16666666666667" as="geometry" />
        </mxCell>
        <mxCell id="sahA0iktt0Oa_fKXpLNN-66" value="行为" style="shape=hexagon;strokeWidth=4;html=1;fillColor=#12AAB5;strokeColor=#ffffff;shadow=0;fontSize=28;fontColor=#FFFFFF;align=center;fontStyle=0;whiteSpace=wrap;spacing=10;rounded=0;" vertex="1" parent="sahA0iktt0Oa_fKXpLNN-151">
          <mxGeometry x="96" y="115.16666666666667" width="128" height="115.16666666666667" as="geometry" />
        </mxCell>
        <mxCell id="sahA0iktt0Oa_fKXpLNN-67" value="埋点" style="shape=hexagon;strokeWidth=4;html=1;fillColor=#1699D3;strokeColor=#ffffff;shadow=0;fontSize=28;fontColor=#FFFFFF;align=center;fontStyle=0;whiteSpace=wrap;spacing=10;rounded=0;" vertex="1" parent="sahA0iktt0Oa_fKXpLNN-151">
          <mxGeometry x="96" width="128" height="115.16666666666667" as="geometry" />
        </mxCell>
        <mxCell id="sahA0iktt0Oa_fKXpLNN-68" value="图像" style="shape=hexagon;strokeWidth=4;html=1;fillColor=#736CA8;strokeColor=#ffffff;shadow=0;fontSize=28;fontColor=#FFFFFF;align=center;fontStyle=0;whiteSpace=wrap;spacing=10;rounded=0;" vertex="1" parent="sahA0iktt0Oa_fKXpLNN-151">
          <mxGeometry x="192" y="57.583333333333336" width="128" height="115.16666666666667" as="geometry" />
        </mxCell>
        <mxCell id="sahA0iktt0Oa_fKXpLNN-69" value="搜索" style="shape=hexagon;strokeWidth=4;html=1;fillColor=#2F5B7C;strokeColor=#ffffff;shadow=0;fontSize=28;fontColor=#FFFFFF;align=center;fontStyle=0;whiteSpace=wrap;spacing=10;rounded=0;" vertex="1" parent="sahA0iktt0Oa_fKXpLNN-151">
          <mxGeometry x="192" y="172.75" width="128" height="115.16666666666667" as="geometry" />
        </mxCell>
        <mxCell id="sahA0iktt0Oa_fKXpLNN-70" value="app" style="shape=hexagon;strokeWidth=4;html=1;fillColor=#777777;strokeColor=#ffffff;shadow=0;fontSize=28;fontColor=#FFFFFF;align=center;fontStyle=0;whiteSpace=wrap;spacing=10;rounded=0;" vertex="1" parent="sahA0iktt0Oa_fKXpLNN-151">
          <mxGeometry x="96" y="230.33333333333334" width="128" height="115.16666666666667" as="geometry" />
        </mxCell>
        <mxCell id="sahA0iktt0Oa_fKXpLNN-152" value="" style="shape=flexArrow;endArrow=classic;html=1;" edge="1" parent="1">
          <mxGeometry width="50" height="50" relative="1" as="geometry">
            <mxPoint x="-270" y="1710" as="sourcePoint" />
            <mxPoint x="-420" y="1710" as="targetPoint" />
          </mxGeometry>
        </mxCell>
        <mxCell id="sahA0iktt0Oa_fKXpLNN-156" value="" style="shape=flexArrow;endArrow=classic;html=1;" edge="1" parent="1">
          <mxGeometry width="50" height="50" relative="1" as="geometry">
            <mxPoint x="-21.5" y="1990" as="sourcePoint" />
            <mxPoint x="-21" y="2120" as="targetPoint" />
          </mxGeometry>
        </mxCell>
        <mxCell id="sahA0iktt0Oa_fKXpLNN-134" value="" style="group" vertex="1" connectable="0" parent="1">
          <mxGeometry x="-170" y="2131.5" width="300" height="207" as="geometry" />
        </mxCell>
        <mxCell id="sahA0iktt0Oa_fKXpLNN-126" value="" style="html=1;shape=mxgraph.infographic.pyramidStep;fillColor=#F2931E;strokeColor=none;shadow=0;fontSize=28;" vertex="1" parent="sahA0iktt0Oa_fKXpLNN-134">
          <mxGeometry x="131.25" width="37.5" height="207" as="geometry" />
        </mxCell>
        <mxCell id="sahA0iktt0Oa_fKXpLNN-127" value="" style="html=1;shape=mxgraph.infographic.pyramidStep;fillColor=#F8C382;strokeColor=none;shadow=0;fontSize=28;" vertex="1" parent="sahA0iktt0Oa_fKXpLNN-134">
          <mxGeometry x="112.5" y="21.789473684210527" width="75" height="185.21052631578948" as="geometry" />
        </mxCell>
        <mxCell id="sahA0iktt0Oa_fKXpLNN-128" value="" style="html=1;shape=mxgraph.infographic.pyramidStep;fillColor=#FCE7CD;strokeColor=none;shadow=0;fontSize=28;" vertex="1" parent="sahA0iktt0Oa_fKXpLNN-134">
          <mxGeometry x="93.75" y="43.578947368421055" width="112.5" height="163.42105263157896" as="geometry" />
        </mxCell>
        <mxCell id="sahA0iktt0Oa_fKXpLNN-129" value="" style="html=1;shape=mxgraph.infographic.pyramidStep;fillColor=#BAC8D3;strokeColor=none;shadow=0;fontSize=28;" vertex="1" parent="sahA0iktt0Oa_fKXpLNN-134">
          <mxGeometry x="75" y="65.36842105263159" width="150" height="141.63157894736844" as="geometry" />
        </mxCell>
        <mxCell id="sahA0iktt0Oa_fKXpLNN-130" value="" style="html=1;shape=mxgraph.infographic.pyramidStep;fillColor=#5D7F99;strokeColor=none;shadow=0;fontSize=28;" vertex="1" parent="sahA0iktt0Oa_fKXpLNN-134">
          <mxGeometry x="56.25" y="87.15789473684211" width="187.5" height="119.8421052631579" as="geometry" />
        </mxCell>
        <mxCell id="sahA0iktt0Oa_fKXpLNN-131" value="" style="html=1;shape=mxgraph.infographic.pyramidStep;fillColor=#2F5B7C;strokeColor=none;shadow=0;fontSize=28;" vertex="1" parent="sahA0iktt0Oa_fKXpLNN-134">
          <mxGeometry x="37.5" y="108.94736842105263" width="225" height="98.05263157894737" as="geometry" />
        </mxCell>
        <mxCell id="sahA0iktt0Oa_fKXpLNN-132" value="" style="html=1;shape=mxgraph.infographic.pyramidStep;fillColor=#23445D;strokeColor=none;shadow=0;fontSize=28;" vertex="1" parent="sahA0iktt0Oa_fKXpLNN-134">
          <mxGeometry x="18.75" y="130.73684210526318" width="262.5" height="76.26315789473685" as="geometry" />
        </mxCell>
        <mxCell id="sahA0iktt0Oa_fKXpLNN-133" value="" style="html=1;shape=mxgraph.infographic.pyramidStep;fillColor=#333333;strokeColor=none;shadow=0;fontSize=28;" vertex="1" parent="sahA0iktt0Oa_fKXpLNN-134">
          <mxGeometry y="152.5263157894737" width="300" height="54.473684210526315" as="geometry" />
        </mxCell>
        <mxCell id="sahA0iktt0Oa_fKXpLNN-135" value="构建镜像" style="text;html=1;strokeColor=none;fillColor=none;align=center;verticalAlign=middle;whiteSpace=wrap;rounded=0;fontSize=28;" vertex="1" parent="1">
          <mxGeometry x="-105" y="2407" width="170" height="20" as="geometry" />
        </mxCell>
        <mxCell id="sahA0iktt0Oa_fKXpLNN-153" value="模型优化+阈值调整" style="text;html=1;strokeColor=none;fillColor=none;align=center;verticalAlign=middle;whiteSpace=wrap;rounded=0;fontSize=26;" vertex="1" parent="1">
          <mxGeometry x="-770" y="1910" width="280" height="44.81" as="geometry" />
        </mxCell>
        <mxCell id="sahA0iktt0Oa_fKXpLNN-175" value="" style="group" vertex="1" connectable="0" parent="1">
          <mxGeometry x="-860" y="1590" width="420" height="260" as="geometry" />
        </mxCell>
        <mxCell id="sahA0iktt0Oa_fKXpLNN-159" value="" style="fillColor=#10739E;strokeColor=none;fontSize=26;" vertex="1" parent="sahA0iktt0Oa_fKXpLNN-175">
          <mxGeometry y="60.00000000000021" width="74.11764705882351" height="200.00000000000003" as="geometry" />
        </mxCell>
        <mxCell id="sahA0iktt0Oa_fKXpLNN-160" value="" style="shape=mxgraph.arrows2.arrow;dy=0.4;dx=16;notch=0;direction=north;fillColor=#1699D3;strokeColor=none;" vertex="1" parent="sahA0iktt0Oa_fKXpLNN-159">
          <mxGeometry x="7.411764705882352" y="60.000000000000014" width="59.29411764705882" height="140.00000000000003" as="geometry" />
        </mxCell>
        <mxCell id="sahA0iktt0Oa_fKXpLNN-162" value="" style="fillColor=#F2931E;strokeColor=none;fontSize=26;" vertex="1" parent="sahA0iktt0Oa_fKXpLNN-175">
          <mxGeometry x="86.47058823529406" y="20.00000000000025" width="74.11764705882351" height="240.00000000000003" as="geometry" />
        </mxCell>
        <mxCell id="sahA0iktt0Oa_fKXpLNN-163" value="" style="shape=mxgraph.arrows2.arrow;dy=0.4;dx=16;notch=0;direction=south;fillColor=#F5AB50;strokeColor=none;" vertex="1" parent="sahA0iktt0Oa_fKXpLNN-162">
          <mxGeometry x="7.411764705882352" width="59.29411764705882" height="160" as="geometry" />
        </mxCell>
        <mxCell id="sahA0iktt0Oa_fKXpLNN-165" value="" style="fillColor=#AE4132;strokeColor=none;fontSize=26;" vertex="1" parent="sahA0iktt0Oa_fKXpLNN-175">
          <mxGeometry x="172.94117647058826" width="74.11764705882351" height="260.00000000000006" as="geometry" />
        </mxCell>
        <mxCell id="sahA0iktt0Oa_fKXpLNN-166" value="" style="shape=mxgraph.arrows2.arrow;dy=0.4;dx=16;notch=0;direction=north;fillColor=#E85642;strokeColor=none;" vertex="1" parent="sahA0iktt0Oa_fKXpLNN-165">
          <mxGeometry x="7.411764705882352" y="160" width="59.29411764705882" height="100.00000000000001" as="geometry" />
        </mxCell>
        <mxCell id="sahA0iktt0Oa_fKXpLNN-168" value="" style="fillColor=#12AAB5;strokeColor=none;fontSize=26;" vertex="1" parent="sahA0iktt0Oa_fKXpLNN-175">
          <mxGeometry x="259.4117647058823" y="100.00000000000017" width="74.11764705882351" height="160" as="geometry" />
        </mxCell>
        <mxCell id="sahA0iktt0Oa_fKXpLNN-169" value="" style="shape=mxgraph.arrows2.arrow;dy=0.4;dx=16;notch=0;direction=south;fillColor=#64BBE2;strokeColor=none;" vertex="1" parent="sahA0iktt0Oa_fKXpLNN-168">
          <mxGeometry x="7.411764705882352" width="59.29411764705882" height="60.00000000000001" as="geometry" />
        </mxCell>
        <mxCell id="sahA0iktt0Oa_fKXpLNN-171" value="" style="fillColor=#23445D;strokeColor=none;fontSize=26;" vertex="1" parent="sahA0iktt0Oa_fKXpLNN-175">
          <mxGeometry x="345.8823529411765" y="119.99999999999989" width="74.11764705882351" height="140" as="geometry" />
        </mxCell>
        <mxCell id="sahA0iktt0Oa_fKXpLNN-172" value="" style="shape=mxgraph.arrows2.arrow;dy=0.4;dx=16;notch=0;direction=north;fillColor=#2F5B7C;strokeColor=none;" vertex="1" parent="sahA0iktt0Oa_fKXpLNN-171">
          <mxGeometry x="7.411764705882352" y="19.999999999999996" width="59.29411764705882" height="120" as="geometry" />
        </mxCell>
        <mxCell id="sahA0iktt0Oa_fKXpLNN-180" value="" style="shape=flexArrow;endArrow=classic;html=1;" edge="1" parent="1">
          <mxGeometry width="50" height="50" relative="1" as="geometry">
            <mxPoint x="370" y="2280" as="sourcePoint" />
            <mxPoint x="210" y="2280" as="targetPoint" />
          </mxGeometry>
        </mxCell>
        <mxCell id="sahA0iktt0Oa_fKXpLNN-184" value="云端服务器" style="shape=image;html=1;verticalAlign=top;verticalLabelPosition=bottom;labelBackgroundColor=#ffffff;imageAspect=0;aspect=fixed;image=https://cdn2.iconfinder.com/data/icons/whcompare-isometric-web-hosting-servers/50/cloud-server-128.png;fontSize=26;" vertex="1" parent="1">
          <mxGeometry x="-876.5" y="2067" width="360" height="360" as="geometry" />
        </mxCell>
        <mxCell id="sahA0iktt0Oa_fKXpLNN-186" value="&lt;font style=&quot;font-size: 20px&quot;&gt;step2&lt;/font&gt;" style="html=1;shape=mxgraph.infographic.ribbonSimple;notch1=20;notch2=20;fillColor=#10739E;strokeColor=none;align=center;verticalAlign=middle;fontColor=#ffffff;fontSize=14;fontStyle=1;" vertex="1" parent="1">
          <mxGeometry x="-460" y="2170" width="200" height="40" as="geometry" />
        </mxCell>
        <mxCell id="sahA0iktt0Oa_fKXpLNN-187" value="&lt;font style=&quot;font-size: 20px&quot;&gt;step3&lt;/font&gt;" style="html=1;shape=mxgraph.infographic.ribbonSimple;notch1=20;notch2=20;fillColor=#10739E;strokeColor=none;align=center;verticalAlign=middle;fontColor=#ffffff;fontSize=14;fontStyle=1;flipH=1;" vertex="1" parent="1">
          <mxGeometry x="-460" y="2323" width="200" height="40" as="geometry" />
        </mxCell>
        <mxCell id="sahA0iktt0Oa_fKXpLNN-190" value="" style="group" vertex="1" connectable="0" parent="1">
          <mxGeometry x="-1280" y="1660" width="194" height="240" as="geometry" />
        </mxCell>
        <mxCell id="sahA0iktt0Oa_fKXpLNN-188" value="" style="shape=image;html=1;verticalAlign=top;verticalLabelPosition=bottom;labelBackgroundColor=#ffffff;imageAspect=0;aspect=fixed;image=https://cdn3.iconfinder.com/data/icons/beos/BeOS_print_server.png;fontSize=26;" vertex="1" parent="sahA0iktt0Oa_fKXpLNN-190">
          <mxGeometry width="194" height="194" as="geometry" />
        </mxCell>
        <mxCell id="sahA0iktt0Oa_fKXpLNN-189" value="场景终端" style="text;html=1;strokeColor=none;fillColor=none;align=center;verticalAlign=middle;whiteSpace=wrap;rounded=0;fontSize=26;" vertex="1" parent="sahA0iktt0Oa_fKXpLNN-190">
          <mxGeometry y="220" width="190" height="20" as="geometry" />
        </mxCell>
        <mxCell id="sahA0iktt0Oa_fKXpLNN-191" value="&lt;font style=&quot;font-size: 20px&quot;&gt;&lt;span style=&quot;background-color: rgb(0 , 0 , 0)&quot;&gt;step4&lt;/span&gt;&lt;/font&gt;" style="html=1;shape=mxgraph.infographic.bannerHalfFold;dx=40;dx2=20;notch=15;fillColor=#10739E;strokeColor=none;align=left;verticalAlign=top;fontColor=#ffffff;fontSize=14;fontStyle=1;spacingLeft=25;spacingTop=5;flipH=0;flipV=1;direction=north;" vertex="1" parent="1">
          <mxGeometry x="-1260" y="2138.5" width="200" height="200" as="geometry" />
        </mxCell>
        <mxCell id="sahA0iktt0Oa_fKXpLNN-192" value="&lt;font style=&quot;font-size: 20px&quot;&gt;&lt;span style=&quot;background-color: rgb(0 , 0 , 0)&quot;&gt;step1&lt;/span&gt;&lt;/font&gt;" style="html=1;shape=mxgraph.infographic.bannerHalfFold;dx=40;dx2=20;notch=15;fillColor=#10739E;strokeColor=none;align=left;verticalAlign=top;fontColor=#ffffff;fontSize=14;fontStyle=1;spacingLeft=25;spacingTop=5;flipH=1;flipV=1;direction=east;" vertex="1" parent="1">
          <mxGeometry x="-1150" y="2050" width="200" height="200" as="geometry" />
        </mxCell>
        <mxCell id="sahA0iktt0Oa_fKXpLNN-193" value="" style="shape=flexArrow;endArrow=classic;html=1;" edge="1" parent="1">
          <mxGeometry width="50" height="50" relative="1" as="geometry">
            <mxPoint x="-1181" y="1610" as="sourcePoint" />
            <mxPoint x="-1180.8300000000004" y="1510" as="targetPoint" />
          </mxGeometry>
        </mxCell>
        <mxCell id="sahA0iktt0Oa_fKXpLNN-137" value="" style="shape=flexArrow;endArrow=classic;html=1;" edge="1" parent="1">
          <mxGeometry width="50" height="50" relative="1" as="geometry">
            <mxPoint x="381.3587878787879" y="1725.7142857142858" as="sourcePoint" />
            <mxPoint x="269.9951515151515" y="1725.7142857142858" as="targetPoint" />
          </mxGeometry>
        </mxCell>
        <mxCell id="sahA0iktt0Oa_fKXpLNN-194" value="" style="group" vertex="1" connectable="0" parent="1">
          <mxGeometry x="450" y="2120" width="283.0799999999999" height="307" as="geometry" />
        </mxCell>
        <mxCell id="sahA0iktt0Oa_fKXpLNN-177" value="" style="aspect=fixed;html=1;points=[];align=center;image;fontSize=12;image=img/lib/azure2/databases/Cache_Redis.svg;" vertex="1" parent="sahA0iktt0Oa_fKXpLNN-194">
          <mxGeometry width="283.08" height="230" as="geometry" />
        </mxCell>
        <mxCell id="sahA0iktt0Oa_fKXpLNN-179" value="数据库" style="text;html=1;strokeColor=none;fillColor=none;align=center;verticalAlign=middle;whiteSpace=wrap;rounded=0;fontSize=28;" vertex="1" parent="sahA0iktt0Oa_fKXpLNN-194">
          <mxGeometry x="56.539999999999964" y="287" width="170" height="20" as="geometry" />
        </mxCell>
        <mxCell id="sahA0iktt0Oa_fKXpLNN-195" value="AI引擎" style="text;html=1;align=center;verticalAlign=middle;resizable=0;points=[];autosize=1;strokeColor=none;fillColor=none;fontSize=26;" vertex="1" parent="1">
          <mxGeometry x="-695" y="1440" width="90" height="40" as="geometry" />
        </mxCell>
        <mxCell id="sahA0iktt0Oa_fKXpLNN-196" value="标签、核心聚合" style="text;html=1;align=center;verticalAlign=middle;resizable=0;points=[];autosize=1;strokeColor=none;fillColor=none;fontSize=26;" vertex="1" parent="1">
          <mxGeometry x="-120" y="1530" width="200" height="40" as="geometry" />
        </mxCell>
        <mxCell id="sahA0iktt0Oa_fKXpLNN-197" value="场景拟合" style="text;html=1;align=center;verticalAlign=middle;resizable=0;points=[];autosize=1;strokeColor=none;fillColor=none;fontSize=26;" vertex="1" parent="1">
          <mxGeometry x="550" y="1440" width="120" height="40" as="geometry" />
        </mxCell>
        <mxCell id="sahA0iktt0Oa_fKXpLNN-198" value="" style="shape=flexArrow;endArrow=classic;html=1;fontSize=26;width=40;endSize=11.999999999999998;endWidth=56.25;fillColor=#f8cecc;strokeColor=#b85450;" edge="1" parent="1">
          <mxGeometry width="50" height="50" relative="1" as="geometry">
            <mxPoint x="-1450" y="1800" as="sourcePoint" />
            <mxPoint x="-1330" y="1800" as="targetPoint" />
          </mxGeometry>
        </mxCell>
      </root>
    </mxGraphModel>
  </diagram>
  <diagram id="wtgGj8jqNF0SMkVMOoBg" name="第 2 页">
    <mxGraphModel dx="4849" dy="1869" grid="1" gridSize="10" guides="1" tooltips="1" connect="1" arrows="1" fold="1" page="1" pageScale="1" pageWidth="850" pageHeight="1100" math="0" shadow="0">
      <root>
        <mxCell id="siTgfDKvwFskkdA27iEr-0" />
        <mxCell id="siTgfDKvwFskkdA27iEr-1" parent="siTgfDKvwFskkdA27iEr-0" />
        <mxCell id="siTgfDKvwFskkdA27iEr-2" value="" style="shape=flexArrow;endArrow=classic;html=1;" edge="1" parent="siTgfDKvwFskkdA27iEr-1">
          <mxGeometry width="50" height="50" relative="1" as="geometry">
            <mxPoint x="-1010" y="1288.75" as="sourcePoint" />
            <mxPoint x="-850" y="1288.75" as="targetPoint" />
          </mxGeometry>
        </mxCell>
        <mxCell id="siTgfDKvwFskkdA27iEr-3" value="" style="shape=flexArrow;endArrow=classic;html=1;" edge="1" parent="siTgfDKvwFskkdA27iEr-1">
          <mxGeometry width="50" height="50" relative="1" as="geometry">
            <mxPoint x="310" y="1289" as="sourcePoint" />
            <mxPoint x="390" y="1289" as="targetPoint" />
          </mxGeometry>
        </mxCell>
        <mxCell id="siTgfDKvwFskkdA27iEr-4" value="" style="group" vertex="1" connectable="0" parent="siTgfDKvwFskkdA27iEr-1">
          <mxGeometry x="410" y="1020" width="550" height="400" as="geometry" />
        </mxCell>
        <mxCell id="siTgfDKvwFskkdA27iEr-5" value="" style="whiteSpace=wrap;html=1;fixedSize=1;size=10;fillColor=#dddddd;strokeColor=none;rounded=0;" vertex="1" parent="siTgfDKvwFskkdA27iEr-4">
          <mxGeometry width="550.0000000000001" height="66.66666666666667" as="geometry" />
        </mxCell>
        <mxCell id="siTgfDKvwFskkdA27iEr-6" value="" style="html=1;shape=mxgraph.infographic.ribbonSimple;notch1=0;notch2=20;fillColor=#10739E;strokeColor=none;align=left;verticalAlign=middle;fontColor=#ffffff;fontSize=18;spacingLeft=10;fontStyle=1;shadow=0;" vertex="1" parent="siTgfDKvwFskkdA27iEr-4">
          <mxGeometry width="357.5" height="66.66666666666667" as="geometry" />
        </mxCell>
        <mxCell id="siTgfDKvwFskkdA27iEr-7" value="" style="whiteSpace=wrap;html=1;fixedSize=1;size=10;fillColor=#dddddd;strokeColor=none;rounded=0;" vertex="1" parent="siTgfDKvwFskkdA27iEr-4">
          <mxGeometry y="83.33333333333333" width="550.0000000000001" height="66.66666666666667" as="geometry" />
        </mxCell>
        <mxCell id="siTgfDKvwFskkdA27iEr-8" value="" style="html=1;shape=mxgraph.infographic.ribbonSimple;notch1=0;notch2=20;fillColor=#F2931E;strokeColor=none;align=left;verticalAlign=middle;fontColor=#ffffff;fontSize=18;spacingLeft=10;fontStyle=1;shadow=0;" vertex="1" parent="siTgfDKvwFskkdA27iEr-4">
          <mxGeometry y="83.33333333333333" width="247.50000000000006" height="66.66666666666667" as="geometry" />
        </mxCell>
        <mxCell id="siTgfDKvwFskkdA27iEr-9" value="" style="whiteSpace=wrap;html=1;fixedSize=1;size=10;fillColor=#dddddd;strokeColor=none;rounded=0;" vertex="1" parent="siTgfDKvwFskkdA27iEr-4">
          <mxGeometry y="166.66666666666666" width="550.0000000000001" height="66.66666666666667" as="geometry" />
        </mxCell>
        <mxCell id="siTgfDKvwFskkdA27iEr-10" value="" style="html=1;shape=mxgraph.infographic.ribbonSimple;notch1=0;notch2=20;fillColor=#AE4132;strokeColor=none;align=left;verticalAlign=middle;fontColor=#ffffff;fontSize=18;spacingLeft=10;fontStyle=1;shadow=0;" vertex="1" parent="siTgfDKvwFskkdA27iEr-4">
          <mxGeometry y="166.66666666666666" width="165" height="66.66666666666667" as="geometry" />
        </mxCell>
        <mxCell id="siTgfDKvwFskkdA27iEr-11" value="" style="whiteSpace=wrap;html=1;fixedSize=1;size=10;fillColor=#dddddd;strokeColor=none;rounded=0;" vertex="1" parent="siTgfDKvwFskkdA27iEr-4">
          <mxGeometry y="250" width="550.0000000000001" height="66.66666666666667" as="geometry" />
        </mxCell>
        <mxCell id="siTgfDKvwFskkdA27iEr-12" value="" style="html=1;shape=mxgraph.infographic.ribbonSimple;notch1=0;notch2=20;fillColor=#23445D;strokeColor=none;align=left;verticalAlign=middle;fontColor=#ffffff;fontSize=18;spacingLeft=10;fontStyle=1;shadow=0;" vertex="1" parent="siTgfDKvwFskkdA27iEr-4">
          <mxGeometry y="250" width="330" height="66.66666666666667" as="geometry" />
        </mxCell>
        <mxCell id="siTgfDKvwFskkdA27iEr-13" value="" style="whiteSpace=wrap;html=1;fixedSize=1;size=10;fillColor=#dddddd;strokeColor=none;rounded=0;" vertex="1" parent="siTgfDKvwFskkdA27iEr-4">
          <mxGeometry y="333.3333333333333" width="550.0000000000001" height="66.66666666666667" as="geometry" />
        </mxCell>
        <mxCell id="siTgfDKvwFskkdA27iEr-14" value="" style="html=1;shape=mxgraph.infographic.ribbonSimple;notch1=0;notch2=20;fillColor=#12AAB5;strokeColor=none;align=left;verticalAlign=middle;fontColor=#ffffff;fontSize=18;spacingLeft=10;fontStyle=1;shadow=0;" vertex="1" parent="siTgfDKvwFskkdA27iEr-4">
          <mxGeometry y="333.3333333333333" width="467.50000000000006" height="66.66666666666667" as="geometry" />
        </mxCell>
        <mxCell id="siTgfDKvwFskkdA27iEr-20" value="" style="shape=flexArrow;endArrow=classic;html=1;" edge="1" parent="siTgfDKvwFskkdA27iEr-1">
          <mxGeometry width="50" height="50" relative="1" as="geometry">
            <mxPoint x="-650" y="1570" as="sourcePoint" />
            <mxPoint x="-651.4300000000003" y="1490" as="targetPoint" />
          </mxGeometry>
        </mxCell>
        <mxCell id="siTgfDKvwFskkdA27iEr-21" value="" style="group" vertex="1" connectable="0" parent="siTgfDKvwFskkdA27iEr-1">
          <mxGeometry x="425" y="1640" width="440" height="400" as="geometry" />
        </mxCell>
        <mxCell id="siTgfDKvwFskkdA27iEr-22" value="" style="verticalLabelPosition=bottom;verticalAlign=top;html=1;shape=mxgraph.basic.partConcEllipse;fillColor=#10739E;strokeColor=#ffffff;startAngle=0.75;endAngle=0.08;arcWidth=0.16;strokeWidth=3;fontSize=28;" vertex="1" parent="siTgfDKvwFskkdA27iEr-21">
          <mxGeometry width="440" height="400" as="geometry" />
        </mxCell>
        <mxCell id="siTgfDKvwFskkdA27iEr-23" value="" style="verticalLabelPosition=bottom;verticalAlign=top;html=1;shape=mxgraph.basic.partConcEllipse;fillColor=#F2931E;strokeColor=#ffffff;startAngle=0.91;endAngle=0.17;arcWidth=0.18;strokeWidth=3;fontSize=28;" vertex="1" parent="siTgfDKvwFskkdA27iEr-21">
          <mxGeometry x="33.84615384615385" y="30.769230769230774" width="372.3076923076923" height="338.46153846153845" as="geometry" />
        </mxCell>
        <mxCell id="siTgfDKvwFskkdA27iEr-24" value="" style="verticalLabelPosition=bottom;verticalAlign=top;html=1;shape=mxgraph.basic.partConcEllipse;fillColor=#AE4132;strokeColor=#ffffff;startAngle=0.75;endAngle=0.11;arcWidth=0.22;strokeWidth=3;fontSize=28;" vertex="1" parent="siTgfDKvwFskkdA27iEr-21">
          <mxGeometry x="67.6923076923077" y="61.53846153846155" width="304.6153846153846" height="276.9230769230769" as="geometry" />
        </mxCell>
        <mxCell id="siTgfDKvwFskkdA27iEr-25" value="" style="verticalLabelPosition=bottom;verticalAlign=top;html=1;shape=mxgraph.basic.partConcEllipse;fillColor=#12AAB5;strokeColor=#ffffff;startAngle=0.02;endAngle=0.25;arcWidth=0.29;strokeWidth=3;fontSize=28;" vertex="1" parent="siTgfDKvwFskkdA27iEr-21">
          <mxGeometry x="101.53846153846153" y="92.30769230769232" width="236.92307692307688" height="215.3846153846154" as="geometry" />
        </mxCell>
        <mxCell id="siTgfDKvwFskkdA27iEr-26" value="" style="verticalLabelPosition=bottom;verticalAlign=top;html=1;shape=mxgraph.basic.partConcEllipse;fillColor=#CCCCCC;strokeColor=#ffffff;startAngle=0.75;endAngle=0.25;arcWidth=0.4;strokeWidth=3;fontSize=28;" vertex="1" parent="siTgfDKvwFskkdA27iEr-21">
          <mxGeometry x="135.3846153846154" y="123.0769230769231" width="169.23076923076923" height="153.84615384615384" as="geometry" />
        </mxCell>
        <mxCell id="siTgfDKvwFskkdA27iEr-27" value="" style="html=1;shape=mxgraph.basic.pie;fillColor=#23445D;strokeColor=#ffffff;startAngle=0.75;endAngle=0.25;fontSize=16;fontColor=#FFFFFF;verticalAlign=top;fontStyle=1;strokeWidth=3;" vertex="1" parent="siTgfDKvwFskkdA27iEr-21">
          <mxGeometry x="169.23076923076923" y="153.84615384615384" width="101.53846153846153" height="92.30769230769232" as="geometry" />
        </mxCell>
        <mxCell id="siTgfDKvwFskkdA27iEr-28" value="" style="shape=flexArrow;endArrow=classic;html=1;" edge="1" parent="siTgfDKvwFskkdA27iEr-1">
          <mxGeometry width="50" height="50" relative="1" as="geometry">
            <mxPoint x="610" y="1500" as="sourcePoint" />
            <mxPoint x="610" y="1620" as="targetPoint" />
          </mxGeometry>
        </mxCell>
        <mxCell id="siTgfDKvwFskkdA27iEr-29" value="" style="group" vertex="1" connectable="0" parent="siTgfDKvwFskkdA27iEr-1">
          <mxGeometry x="-240" y="1620" width="410" height="360" as="geometry" />
        </mxCell>
        <mxCell id="siTgfDKvwFskkdA27iEr-30" value="" style="group" vertex="1" connectable="0" parent="siTgfDKvwFskkdA27iEr-29">
          <mxGeometry width="410" height="273.85892116182566" as="geometry" />
        </mxCell>
        <mxCell id="siTgfDKvwFskkdA27iEr-31" value="" style="verticalLabelPosition=bottom;verticalAlign=top;html=1;shape=mxgraph.infographic.shadedCube;isoAngle=15;fillColor=#12AAB5;strokeColor=none;shadow=0;fontSize=28;" vertex="1" parent="siTgfDKvwFskkdA27iEr-30">
          <mxGeometry x="292.85714285714283" width="117.14285714285712" height="162.45868204515085" as="geometry" />
        </mxCell>
        <mxCell id="siTgfDKvwFskkdA27iEr-32" value="" style="verticalLabelPosition=bottom;verticalAlign=top;html=1;shape=mxgraph.infographic.shadedCube;isoAngle=15;fillColor=#23445D;strokeColor=none;shadow=0;fontSize=28;" vertex="1" parent="siTgfDKvwFskkdA27iEr-30">
          <mxGeometry x="219.64285714285717" y="74.26682607778325" width="117.14285714285712" height="116.04191574653632" as="geometry" />
        </mxCell>
        <mxCell id="siTgfDKvwFskkdA27iEr-33" value="" style="verticalLabelPosition=bottom;verticalAlign=top;html=1;shape=mxgraph.infographic.shadedCube;isoAngle=15;fillColor=#AE4132;strokeColor=none;shadow=0;fontSize=28;" vertex="1" parent="siTgfDKvwFskkdA27iEr-30">
          <mxGeometry x="146.42857142857142" y="9.283353259722906" width="117.14285714285712" height="208.87544834376538" as="geometry" />
        </mxCell>
        <mxCell id="siTgfDKvwFskkdA27iEr-34" value="" style="verticalLabelPosition=bottom;verticalAlign=top;html=1;shape=mxgraph.infographic.shadedCube;isoAngle=15;fillColor=#F2931E;strokeColor=none;shadow=0;fontSize=28;" vertex="1" parent="siTgfDKvwFskkdA27iEr-30">
          <mxGeometry x="73.21428571428571" y="13.925029889584357" width="117.14285714285712" height="232.08383149307264" as="geometry" />
        </mxCell>
        <mxCell id="siTgfDKvwFskkdA27iEr-35" value="" style="verticalLabelPosition=bottom;verticalAlign=top;html=1;shape=mxgraph.infographic.shadedCube;isoAngle=15;fillColor=#10739E;strokeColor=none;shadow=0;fontSize=28;" vertex="1" parent="siTgfDKvwFskkdA27iEr-30">
          <mxGeometry y="88.19185596736762" width="117.14285714285712" height="185.6670651944581" as="geometry" />
        </mxCell>
        <mxCell id="siTgfDKvwFskkdA27iEr-37" value="" style="group;fontSize=15;" vertex="1" connectable="0" parent="siTgfDKvwFskkdA27iEr-1">
          <mxGeometry x="-890" y="1060" width="480" height="360" as="geometry" />
        </mxCell>
        <mxCell id="siTgfDKvwFskkdA27iEr-38" value="" style="triangle;whiteSpace=wrap;html=1;shadow=0;strokeColor=#FFFFFF;strokeWidth=6;fillColor=#10739E;fontSize=22;fontColor=#FFFFFF;align=center;direction=north;fontStyle=1" vertex="1" parent="siTgfDKvwFskkdA27iEr-37">
          <mxGeometry x="120" width="240" height="180" as="geometry" />
        </mxCell>
        <mxCell id="siTgfDKvwFskkdA27iEr-39" value="" style="triangle;whiteSpace=wrap;html=1;shadow=0;strokeColor=#FFFFFF;strokeWidth=6;fillColor=#F2931E;fontSize=22;fontColor=#FFFFFF;align=center;direction=north;fontStyle=1" vertex="1" parent="siTgfDKvwFskkdA27iEr-37">
          <mxGeometry y="180" width="240" height="180" as="geometry" />
        </mxCell>
        <mxCell id="siTgfDKvwFskkdA27iEr-40" value="" style="triangle;whiteSpace=wrap;html=1;shadow=0;strokeColor=#FFFFFF;strokeWidth=6;fillColor=#AE4132;fontSize=22;fontColor=#FFFFFF;align=center;direction=south;fontStyle=1" vertex="1" parent="siTgfDKvwFskkdA27iEr-37">
          <mxGeometry x="120" y="180" width="240" height="180" as="geometry" />
        </mxCell>
        <mxCell id="siTgfDKvwFskkdA27iEr-41" value="" style="triangle;whiteSpace=wrap;html=1;shadow=0;strokeColor=#FFFFFF;strokeWidth=6;fillColor=#23445D;fontSize=22;fontColor=#FFFFFF;align=center;direction=north;fontStyle=1" vertex="1" parent="siTgfDKvwFskkdA27iEr-37">
          <mxGeometry x="240" y="180" width="240" height="180" as="geometry" />
        </mxCell>
        <mxCell id="siTgfDKvwFskkdA27iEr-42" value="" style="group" vertex="1" connectable="0" parent="siTgfDKvwFskkdA27iEr-1">
          <mxGeometry x="-240" y="1010" width="540" height="520" as="geometry" />
        </mxCell>
        <mxCell id="siTgfDKvwFskkdA27iEr-43" value="" style="html=1;shape=mxgraph.infographic.ribbonSimple;notch1=20;notch2=0;fillColor=#10739E;strokeColor=none;shadow=1;" vertex="1" parent="siTgfDKvwFskkdA27iEr-42">
          <mxGeometry width="529.4117647058822" height="88.13559322033898" as="geometry" />
        </mxCell>
        <mxCell id="siTgfDKvwFskkdA27iEr-44" value="" style="shape=step;perimeter=stepPerimeter;whiteSpace=wrap;html=1;fixedSize=1;shadow=0;strokeColor=none;strokeWidth=6;fillColor=#CCCCCC;size=20;" vertex="1" parent="siTgfDKvwFskkdA27iEr-43">
          <mxGeometry y="0.5" width="30" height="40" relative="1" as="geometry">
            <mxPoint x="150" y="-20" as="offset" />
          </mxGeometry>
        </mxCell>
        <mxCell id="siTgfDKvwFskkdA27iEr-46" value="" style="shape=manualInput;whiteSpace=wrap;html=1;shadow=1;strokeColor=none;fillColor=#dddddd;fontSize=15;fontColor=#444444;align=right;direction=south;flipH=1;shadow=1;spacing=10;fontStyle=1;" vertex="1" parent="siTgfDKvwFskkdA27iEr-42">
          <mxGeometry x="434.1176470588235" y="44.06779661016949" width="105.88235294117646" height="52.881355932203384" as="geometry" />
        </mxCell>
        <mxCell id="siTgfDKvwFskkdA27iEr-47" value="" style="shadow=0;dashed=0;html=1;strokeColor=none;shape=mxgraph.mscae.intune.user_group;fontSize=15;fontColor=#FFFFFF;align=left;" vertex="1" parent="siTgfDKvwFskkdA27iEr-42">
          <mxGeometry x="52.94117647058823" y="28.20338983050847" width="52.94117647058823" height="32.61016949152542" as="geometry" />
        </mxCell>
        <mxCell id="siTgfDKvwFskkdA27iEr-48" value="" style="html=1;shape=mxgraph.infographic.ribbonSimple;notch1=20;notch2=0;fillColor=#F2931E;strokeColor=none;shadow=1;" vertex="1" parent="siTgfDKvwFskkdA27iEr-42">
          <mxGeometry y="105.76271186440677" width="529.4117647058822" height="88.13559322033898" as="geometry" />
        </mxCell>
        <mxCell id="siTgfDKvwFskkdA27iEr-49" value="" style="shape=step;perimeter=stepPerimeter;whiteSpace=wrap;html=1;fixedSize=1;shadow=0;strokeColor=none;strokeWidth=6;fillColor=#CCCCCC;size=20;" vertex="1" parent="siTgfDKvwFskkdA27iEr-48">
          <mxGeometry y="0.5" width="30" height="40" relative="1" as="geometry">
            <mxPoint x="150" y="-20" as="offset" />
          </mxGeometry>
        </mxCell>
        <mxCell id="siTgfDKvwFskkdA27iEr-51" value="" style="shape=manualInput;whiteSpace=wrap;html=1;shadow=1;strokeColor=none;fillColor=#dddddd;fontSize=15;fontColor=#444444;align=right;direction=south;flipH=1;shadow=1;spacing=10;fontStyle=1;" vertex="1" parent="siTgfDKvwFskkdA27iEr-42">
          <mxGeometry x="434.1176470588235" y="149.83050847457622" width="105.88235294117646" height="52.881355932203384" as="geometry" />
        </mxCell>
        <mxCell id="siTgfDKvwFskkdA27iEr-52" value="" style="shadow=0;dashed=0;html=1;strokeColor=none;shape=mxgraph.mscae.intune.user_group;fontSize=15;fontColor=#FFFFFF;align=left;" vertex="1" parent="siTgfDKvwFskkdA27iEr-42">
          <mxGeometry x="52.94117647058823" y="133.96610169491524" width="52.94117647058823" height="32.61016949152542" as="geometry" />
        </mxCell>
        <mxCell id="siTgfDKvwFskkdA27iEr-53" value="" style="html=1;shape=mxgraph.infographic.ribbonSimple;notch1=20;notch2=0;fillColor=#AE4132;strokeColor=none;shadow=1;" vertex="1" parent="siTgfDKvwFskkdA27iEr-42">
          <mxGeometry y="211.52542372881354" width="529.4117647058822" height="88.13559322033898" as="geometry" />
        </mxCell>
        <mxCell id="siTgfDKvwFskkdA27iEr-54" value="" style="shape=step;perimeter=stepPerimeter;whiteSpace=wrap;html=1;fixedSize=1;shadow=0;strokeColor=none;strokeWidth=6;fillColor=#CCCCCC;size=20;" vertex="1" parent="siTgfDKvwFskkdA27iEr-53">
          <mxGeometry y="0.5" width="30" height="40" relative="1" as="geometry">
            <mxPoint x="150" y="-20" as="offset" />
          </mxGeometry>
        </mxCell>
        <mxCell id="siTgfDKvwFskkdA27iEr-56" value="" style="shape=manualInput;whiteSpace=wrap;html=1;shadow=1;strokeColor=none;fillColor=#dddddd;fontSize=15;fontColor=#444444;align=right;direction=south;flipH=1;shadow=1;spacing=10;fontStyle=1;" vertex="1" parent="siTgfDKvwFskkdA27iEr-42">
          <mxGeometry x="434.1176470588235" y="255.593220338983" width="105.88235294117646" height="52.881355932203384" as="geometry" />
        </mxCell>
        <mxCell id="siTgfDKvwFskkdA27iEr-57" value="" style="shadow=0;dashed=0;html=1;strokeColor=none;shape=mxgraph.mscae.intune.user_group;fontSize=15;fontColor=#FFFFFF;align=left;" vertex="1" parent="siTgfDKvwFskkdA27iEr-42">
          <mxGeometry x="52.94117647058823" y="239.728813559322" width="52.94117647058823" height="32.61016949152542" as="geometry" />
        </mxCell>
        <mxCell id="siTgfDKvwFskkdA27iEr-58" value="" style="html=1;shape=mxgraph.infographic.ribbonSimple;notch1=20;notch2=0;fillColor=#23445D;strokeColor=none;shadow=1;" vertex="1" parent="siTgfDKvwFskkdA27iEr-42">
          <mxGeometry y="317.28813559322026" width="529.4117647058822" height="88.13559322033898" as="geometry" />
        </mxCell>
        <mxCell id="siTgfDKvwFskkdA27iEr-59" value="" style="shape=step;perimeter=stepPerimeter;whiteSpace=wrap;html=1;fixedSize=1;shadow=0;strokeColor=none;strokeWidth=6;fillColor=#CCCCCC;size=20;" vertex="1" parent="siTgfDKvwFskkdA27iEr-58">
          <mxGeometry y="0.5" width="30" height="40" relative="1" as="geometry">
            <mxPoint x="150" y="-20" as="offset" />
          </mxGeometry>
        </mxCell>
        <mxCell id="siTgfDKvwFskkdA27iEr-61" value="" style="shape=manualInput;whiteSpace=wrap;html=1;shadow=1;strokeColor=none;fillColor=#dddddd;fontSize=15;fontColor=#444444;align=right;direction=south;flipH=1;shadow=1;spacing=10;fontStyle=1;" vertex="1" parent="siTgfDKvwFskkdA27iEr-42">
          <mxGeometry x="434.1176470588235" y="361.3559322033898" width="105.88235294117646" height="52.881355932203384" as="geometry" />
        </mxCell>
        <mxCell id="siTgfDKvwFskkdA27iEr-62" value="" style="shadow=0;dashed=0;html=1;strokeColor=none;shape=mxgraph.mscae.intune.user_group;fontSize=15;fontColor=#FFFFFF;align=left;" vertex="1" parent="siTgfDKvwFskkdA27iEr-42">
          <mxGeometry x="52.94117647058823" y="345.4915254237288" width="52.94117647058823" height="32.61016949152542" as="geometry" />
        </mxCell>
        <mxCell id="siTgfDKvwFskkdA27iEr-63" value="" style="html=1;shape=mxgraph.infographic.ribbonSimple;notch1=20;notch2=0;fillColor=#12AAB5;strokeColor=none;shadow=1;" vertex="1" parent="siTgfDKvwFskkdA27iEr-42">
          <mxGeometry y="423.05084745762707" width="529.4117647058822" height="88.13559322033898" as="geometry" />
        </mxCell>
        <mxCell id="siTgfDKvwFskkdA27iEr-64" value="" style="shape=step;perimeter=stepPerimeter;whiteSpace=wrap;html=1;fixedSize=1;shadow=0;strokeColor=none;strokeWidth=6;fillColor=#CCCCCC;size=20;" vertex="1" parent="siTgfDKvwFskkdA27iEr-63">
          <mxGeometry y="0.5" width="30" height="40" relative="1" as="geometry">
            <mxPoint x="150" y="-20" as="offset" />
          </mxGeometry>
        </mxCell>
        <mxCell id="siTgfDKvwFskkdA27iEr-66" value="" style="shape=manualInput;whiteSpace=wrap;html=1;shadow=1;strokeColor=none;fillColor=#dddddd;fontSize=15;fontColor=#444444;align=right;direction=south;flipH=1;shadow=1;spacing=10;fontStyle=1;" vertex="1" parent="siTgfDKvwFskkdA27iEr-42">
          <mxGeometry x="434.1176470588235" y="467.11864406779654" width="105.88235294117646" height="52.881355932203384" as="geometry" />
        </mxCell>
        <mxCell id="siTgfDKvwFskkdA27iEr-67" value="" style="shadow=0;dashed=0;html=1;strokeColor=none;shape=mxgraph.mscae.intune.user_group;fontSize=15;fontColor=#FFFFFF;align=left;" vertex="1" parent="siTgfDKvwFskkdA27iEr-42">
          <mxGeometry x="52.94117647058823" y="451.2542372881355" width="52.94117647058823" height="32.61016949152542" as="geometry" />
        </mxCell>
        <mxCell id="siTgfDKvwFskkdA27iEr-68" value="" style="group" vertex="1" connectable="0" parent="siTgfDKvwFskkdA27iEr-1">
          <mxGeometry x="-450" y="1030" width="200" height="470" as="geometry" />
        </mxCell>
        <mxCell id="siTgfDKvwFskkdA27iEr-69" value="" style="strokeWidth=1;shadow=0;dashed=0;align=center;html=1;shape=mxgraph.mockup.text.callout;linkText=;textSize=17;textColor=#666666;callDir=NW;callStyle=line;fontSize=17;fontColor=#10739E;align=left;verticalAlign=top;strokeColor=#666666;fillColor=#4D9900;flipV=0;fontStyle=1;rotation=-180;" vertex="1" parent="siTgfDKvwFskkdA27iEr-68">
          <mxGeometry x="6.655574043261232" y="276.36704119850185" width="193.34442595673877" height="89.77528089887639" as="geometry" />
        </mxCell>
        <mxCell id="siTgfDKvwFskkdA27iEr-70" value="" style="strokeWidth=1;shadow=0;dashed=0;align=center;html=1;shape=mxgraph.mockup.text.callout;linkText=;textSize=17;textColor=#666666;callDir=NW;callStyle=line;fontSize=17;fontColor=#10739E;align=left;verticalAlign=top;strokeColor=#666666;fillColor=#4D9900;flipV=0;fontStyle=1;rotation=-180;" vertex="1" parent="siTgfDKvwFskkdA27iEr-68">
          <mxGeometry x="6.655574043261232" y="311.5730337078652" width="193.34442595673877" height="158.42696629213484" as="geometry" />
        </mxCell>
        <mxCell id="siTgfDKvwFskkdA27iEr-71" value="" style="strokeWidth=1;shadow=0;dashed=0;align=center;html=1;shape=mxgraph.mockup.text.callout;linkText=;textSize=17;textColor=#666666;callDir=NW;callStyle=line;fontSize=17;fontColor=#10739E;align=left;verticalAlign=top;strokeColor=#666666;fillColor=#4D9900;flipV=0;fontStyle=1;rotation=-180;" vertex="1" parent="siTgfDKvwFskkdA27iEr-68">
          <mxGeometry y="220.0374531835206" width="193.34442595673877" height="20.243445692883896" as="geometry" />
        </mxCell>
        <mxCell id="siTgfDKvwFskkdA27iEr-72" value="" style="strokeWidth=1;shadow=0;dashed=0;align=center;html=1;shape=mxgraph.mockup.text.callout;linkText=;textSize=17;textColor=#666666;callDir=NW;callStyle=line;fontSize=17;fontColor=#10739E;align=left;verticalAlign=top;strokeColor=#666666;fillColor=#4D9900;flipV=1;fontStyle=1;rotation=-180;flipH=0;" vertex="1" parent="siTgfDKvwFskkdA27iEr-68">
          <mxGeometry x="0.3327787021630616" y="91.53558052434457" width="186.68885191347755" height="91.53558052434457" as="geometry" />
        </mxCell>
        <mxCell id="siTgfDKvwFskkdA27iEr-73" value="" style="strokeWidth=1;shadow=0;dashed=0;align=center;html=1;shape=mxgraph.mockup.text.callout;linkText=;textSize=17;textColor=#666666;callDir=NW;callStyle=line;fontSize=17;fontColor=#10739E;align=left;verticalAlign=top;strokeColor=#666666;fillColor=#4D9900;flipV=1;fontStyle=1;rotation=-180;flipH=0;" vertex="1" parent="siTgfDKvwFskkdA27iEr-68">
          <mxGeometry x="0.3327787021630616" width="186.68885191347755" height="132.02247191011236" as="geometry" />
        </mxCell>
        <mxCell id="siTgfDKvwFskkdA27iEr-74" value="" style="group" vertex="1" connectable="0" parent="siTgfDKvwFskkdA27iEr-1">
          <mxGeometry x="-1340" y="1120" width="320" height="345.5" as="geometry" />
        </mxCell>
        <mxCell id="siTgfDKvwFskkdA27iEr-75" value="" style="shape=hexagon;strokeWidth=4;html=1;fillColor=#F5AB50;strokeColor=#ffffff;shadow=0;fontSize=28;fontColor=#FFFFFF;align=center;fontStyle=0;whiteSpace=wrap;spacing=10;rounded=0;" vertex="1" parent="siTgfDKvwFskkdA27iEr-74">
          <mxGeometry y="57.583333333333336" width="128" height="115.16666666666667" as="geometry" />
        </mxCell>
        <mxCell id="siTgfDKvwFskkdA27iEr-76" value="" style="shape=hexagon;strokeWidth=4;html=1;fillColor=#E85642;strokeColor=#ffffff;shadow=0;fontSize=28;fontColor=#FFFFFF;align=center;fontStyle=0;whiteSpace=wrap;spacing=10;rounded=0;" vertex="1" parent="siTgfDKvwFskkdA27iEr-74">
          <mxGeometry y="172.75" width="128" height="115.16666666666667" as="geometry" />
        </mxCell>
        <mxCell id="siTgfDKvwFskkdA27iEr-77" value="" style="shape=hexagon;strokeWidth=4;html=1;fillColor=#12AAB5;strokeColor=#ffffff;shadow=0;fontSize=28;fontColor=#FFFFFF;align=center;fontStyle=0;whiteSpace=wrap;spacing=10;rounded=0;" vertex="1" parent="siTgfDKvwFskkdA27iEr-74">
          <mxGeometry x="96" y="115.16666666666667" width="128" height="115.16666666666667" as="geometry" />
        </mxCell>
        <mxCell id="siTgfDKvwFskkdA27iEr-78" value="" style="shape=hexagon;strokeWidth=4;html=1;fillColor=#1699D3;strokeColor=#ffffff;shadow=0;fontSize=28;fontColor=#FFFFFF;align=center;fontStyle=0;whiteSpace=wrap;spacing=10;rounded=0;" vertex="1" parent="siTgfDKvwFskkdA27iEr-74">
          <mxGeometry x="96" width="128" height="115.16666666666667" as="geometry" />
        </mxCell>
        <mxCell id="siTgfDKvwFskkdA27iEr-79" value="" style="shape=hexagon;strokeWidth=4;html=1;fillColor=#736CA8;strokeColor=#ffffff;shadow=0;fontSize=28;fontColor=#FFFFFF;align=center;fontStyle=0;whiteSpace=wrap;spacing=10;rounded=0;" vertex="1" parent="siTgfDKvwFskkdA27iEr-74">
          <mxGeometry x="192" y="57.583333333333336" width="128" height="115.16666666666667" as="geometry" />
        </mxCell>
        <mxCell id="siTgfDKvwFskkdA27iEr-80" value="" style="shape=hexagon;strokeWidth=4;html=1;fillColor=#2F5B7C;strokeColor=#ffffff;shadow=0;fontSize=28;fontColor=#FFFFFF;align=center;fontStyle=0;whiteSpace=wrap;spacing=10;rounded=0;" vertex="1" parent="siTgfDKvwFskkdA27iEr-74">
          <mxGeometry x="192" y="172.75" width="128" height="115.16666666666667" as="geometry" />
        </mxCell>
        <mxCell id="siTgfDKvwFskkdA27iEr-81" value="" style="shape=hexagon;strokeWidth=4;html=1;fillColor=#777777;strokeColor=#ffffff;shadow=0;fontSize=28;fontColor=#FFFFFF;align=center;fontStyle=0;whiteSpace=wrap;spacing=10;rounded=0;" vertex="1" parent="siTgfDKvwFskkdA27iEr-74">
          <mxGeometry x="96" y="230.33333333333334" width="128" height="115.16666666666667" as="geometry" />
        </mxCell>
        <mxCell id="siTgfDKvwFskkdA27iEr-82" value="" style="shape=flexArrow;endArrow=classic;html=1;" edge="1" parent="siTgfDKvwFskkdA27iEr-1">
          <mxGeometry width="50" height="50" relative="1" as="geometry">
            <mxPoint x="-270" y="1710" as="sourcePoint" />
            <mxPoint x="-420" y="1710" as="targetPoint" />
          </mxGeometry>
        </mxCell>
        <mxCell id="siTgfDKvwFskkdA27iEr-83" value="" style="shape=flexArrow;endArrow=classic;html=1;" edge="1" parent="siTgfDKvwFskkdA27iEr-1">
          <mxGeometry width="50" height="50" relative="1" as="geometry">
            <mxPoint x="-21.5" y="1990" as="sourcePoint" />
            <mxPoint x="-21" y="2120" as="targetPoint" />
          </mxGeometry>
        </mxCell>
        <mxCell id="siTgfDKvwFskkdA27iEr-84" value="" style="group" vertex="1" connectable="0" parent="siTgfDKvwFskkdA27iEr-1">
          <mxGeometry x="-170" y="2131.5" width="300" height="207" as="geometry" />
        </mxCell>
        <mxCell id="siTgfDKvwFskkdA27iEr-85" value="" style="html=1;shape=mxgraph.infographic.pyramidStep;fillColor=#F2931E;strokeColor=none;shadow=0;fontSize=28;" vertex="1" parent="siTgfDKvwFskkdA27iEr-84">
          <mxGeometry x="131.25" width="37.5" height="207" as="geometry" />
        </mxCell>
        <mxCell id="siTgfDKvwFskkdA27iEr-86" value="" style="html=1;shape=mxgraph.infographic.pyramidStep;fillColor=#F8C382;strokeColor=none;shadow=0;fontSize=28;" vertex="1" parent="siTgfDKvwFskkdA27iEr-84">
          <mxGeometry x="112.5" y="21.789473684210527" width="75" height="185.21052631578948" as="geometry" />
        </mxCell>
        <mxCell id="siTgfDKvwFskkdA27iEr-87" value="" style="html=1;shape=mxgraph.infographic.pyramidStep;fillColor=#FCE7CD;strokeColor=none;shadow=0;fontSize=28;" vertex="1" parent="siTgfDKvwFskkdA27iEr-84">
          <mxGeometry x="93.75" y="43.578947368421055" width="112.5" height="163.42105263157896" as="geometry" />
        </mxCell>
        <mxCell id="siTgfDKvwFskkdA27iEr-88" value="" style="html=1;shape=mxgraph.infographic.pyramidStep;fillColor=#BAC8D3;strokeColor=none;shadow=0;fontSize=28;" vertex="1" parent="siTgfDKvwFskkdA27iEr-84">
          <mxGeometry x="75" y="65.36842105263159" width="150" height="141.63157894736844" as="geometry" />
        </mxCell>
        <mxCell id="siTgfDKvwFskkdA27iEr-89" value="" style="html=1;shape=mxgraph.infographic.pyramidStep;fillColor=#5D7F99;strokeColor=none;shadow=0;fontSize=28;" vertex="1" parent="siTgfDKvwFskkdA27iEr-84">
          <mxGeometry x="56.25" y="87.15789473684211" width="187.5" height="119.8421052631579" as="geometry" />
        </mxCell>
        <mxCell id="siTgfDKvwFskkdA27iEr-90" value="" style="html=1;shape=mxgraph.infographic.pyramidStep;fillColor=#2F5B7C;strokeColor=none;shadow=0;fontSize=28;" vertex="1" parent="siTgfDKvwFskkdA27iEr-84">
          <mxGeometry x="37.5" y="108.94736842105263" width="225" height="98.05263157894737" as="geometry" />
        </mxCell>
        <mxCell id="siTgfDKvwFskkdA27iEr-91" value="" style="html=1;shape=mxgraph.infographic.pyramidStep;fillColor=#23445D;strokeColor=none;shadow=0;fontSize=28;" vertex="1" parent="siTgfDKvwFskkdA27iEr-84">
          <mxGeometry x="18.75" y="130.73684210526318" width="262.5" height="76.26315789473685" as="geometry" />
        </mxCell>
        <mxCell id="siTgfDKvwFskkdA27iEr-92" value="" style="html=1;shape=mxgraph.infographic.pyramidStep;fillColor=#333333;strokeColor=none;shadow=0;fontSize=28;" vertex="1" parent="siTgfDKvwFskkdA27iEr-84">
          <mxGeometry y="152.5263157894737" width="300" height="54.473684210526315" as="geometry" />
        </mxCell>
        <mxCell id="siTgfDKvwFskkdA27iEr-95" value="" style="group" vertex="1" connectable="0" parent="siTgfDKvwFskkdA27iEr-1">
          <mxGeometry x="-860" y="1590" width="420" height="260" as="geometry" />
        </mxCell>
        <mxCell id="siTgfDKvwFskkdA27iEr-96" value="" style="fillColor=#10739E;strokeColor=none;fontSize=26;" vertex="1" parent="siTgfDKvwFskkdA27iEr-95">
          <mxGeometry y="60.00000000000021" width="74.11764705882351" height="200.00000000000003" as="geometry" />
        </mxCell>
        <mxCell id="siTgfDKvwFskkdA27iEr-97" value="" style="shape=mxgraph.arrows2.arrow;dy=0.4;dx=16;notch=0;direction=north;fillColor=#1699D3;strokeColor=none;" vertex="1" parent="siTgfDKvwFskkdA27iEr-96">
          <mxGeometry x="7.411764705882352" y="60.000000000000014" width="59.29411764705882" height="140.00000000000003" as="geometry" />
        </mxCell>
        <mxCell id="siTgfDKvwFskkdA27iEr-98" value="" style="fillColor=#F2931E;strokeColor=none;fontSize=26;" vertex="1" parent="siTgfDKvwFskkdA27iEr-95">
          <mxGeometry x="86.47058823529406" y="20.00000000000025" width="74.11764705882351" height="240.00000000000003" as="geometry" />
        </mxCell>
        <mxCell id="siTgfDKvwFskkdA27iEr-99" value="" style="shape=mxgraph.arrows2.arrow;dy=0.4;dx=16;notch=0;direction=south;fillColor=#F5AB50;strokeColor=none;" vertex="1" parent="siTgfDKvwFskkdA27iEr-98">
          <mxGeometry x="7.411764705882352" width="59.29411764705882" height="160" as="geometry" />
        </mxCell>
        <mxCell id="siTgfDKvwFskkdA27iEr-100" value="" style="fillColor=#AE4132;strokeColor=none;fontSize=26;" vertex="1" parent="siTgfDKvwFskkdA27iEr-95">
          <mxGeometry x="172.94117647058826" width="74.11764705882351" height="260.00000000000006" as="geometry" />
        </mxCell>
        <mxCell id="siTgfDKvwFskkdA27iEr-101" value="" style="shape=mxgraph.arrows2.arrow;dy=0.4;dx=16;notch=0;direction=north;fillColor=#E85642;strokeColor=none;" vertex="1" parent="siTgfDKvwFskkdA27iEr-100">
          <mxGeometry x="7.411764705882352" y="160" width="59.29411764705882" height="100.00000000000001" as="geometry" />
        </mxCell>
        <mxCell id="siTgfDKvwFskkdA27iEr-102" value="" style="fillColor=#12AAB5;strokeColor=none;fontSize=26;" vertex="1" parent="siTgfDKvwFskkdA27iEr-95">
          <mxGeometry x="259.4117647058823" y="100.00000000000017" width="74.11764705882351" height="160" as="geometry" />
        </mxCell>
        <mxCell id="siTgfDKvwFskkdA27iEr-103" value="" style="shape=mxgraph.arrows2.arrow;dy=0.4;dx=16;notch=0;direction=south;fillColor=#64BBE2;strokeColor=none;" vertex="1" parent="siTgfDKvwFskkdA27iEr-102">
          <mxGeometry x="7.411764705882352" width="59.29411764705882" height="60.00000000000001" as="geometry" />
        </mxCell>
        <mxCell id="siTgfDKvwFskkdA27iEr-104" value="" style="fillColor=#23445D;strokeColor=none;fontSize=26;" vertex="1" parent="siTgfDKvwFskkdA27iEr-95">
          <mxGeometry x="345.8823529411765" y="119.99999999999989" width="74.11764705882351" height="140" as="geometry" />
        </mxCell>
        <mxCell id="siTgfDKvwFskkdA27iEr-105" value="" style="shape=mxgraph.arrows2.arrow;dy=0.4;dx=16;notch=0;direction=north;fillColor=#2F5B7C;strokeColor=none;" vertex="1" parent="siTgfDKvwFskkdA27iEr-104">
          <mxGeometry x="7.411764705882352" y="19.999999999999996" width="59.29411764705882" height="120" as="geometry" />
        </mxCell>
        <mxCell id="siTgfDKvwFskkdA27iEr-106" value="" style="shape=flexArrow;endArrow=classic;html=1;" edge="1" parent="siTgfDKvwFskkdA27iEr-1">
          <mxGeometry width="50" height="50" relative="1" as="geometry">
            <mxPoint x="370" y="2280" as="sourcePoint" />
            <mxPoint x="210" y="2280" as="targetPoint" />
          </mxGeometry>
        </mxCell>
        <mxCell id="siTgfDKvwFskkdA27iEr-107" value="" style="shape=image;html=1;verticalAlign=top;verticalLabelPosition=bottom;labelBackgroundColor=#ffffff;imageAspect=0;aspect=fixed;image=https://cdn2.iconfinder.com/data/icons/whcompare-isometric-web-hosting-servers/50/cloud-server-128.png;fontSize=26;" vertex="1" parent="siTgfDKvwFskkdA27iEr-1">
          <mxGeometry x="-876.5" y="2067" width="360" height="360" as="geometry" />
        </mxCell>
        <mxCell id="siTgfDKvwFskkdA27iEr-108" value="" style="html=1;shape=mxgraph.infographic.ribbonSimple;notch1=20;notch2=20;fillColor=#10739E;strokeColor=none;align=center;verticalAlign=middle;fontColor=#ffffff;fontSize=14;fontStyle=1;" vertex="1" parent="siTgfDKvwFskkdA27iEr-1">
          <mxGeometry x="-460" y="2170" width="200" height="40" as="geometry" />
        </mxCell>
        <mxCell id="siTgfDKvwFskkdA27iEr-109" value="" style="html=1;shape=mxgraph.infographic.ribbonSimple;notch1=20;notch2=20;fillColor=#10739E;strokeColor=none;align=center;verticalAlign=middle;fontColor=#ffffff;fontSize=14;fontStyle=1;flipH=1;" vertex="1" parent="siTgfDKvwFskkdA27iEr-1">
          <mxGeometry x="-460" y="2323" width="200" height="40" as="geometry" />
        </mxCell>
        <mxCell id="siTgfDKvwFskkdA27iEr-110" value="" style="group" vertex="1" connectable="0" parent="siTgfDKvwFskkdA27iEr-1">
          <mxGeometry x="-1280" y="1660" width="194" height="240" as="geometry" />
        </mxCell>
        <mxCell id="siTgfDKvwFskkdA27iEr-111" value="" style="shape=image;html=1;verticalAlign=top;verticalLabelPosition=bottom;labelBackgroundColor=#ffffff;imageAspect=0;aspect=fixed;image=https://cdn3.iconfinder.com/data/icons/beos/BeOS_print_server.png;fontSize=26;" vertex="1" parent="siTgfDKvwFskkdA27iEr-110">
          <mxGeometry width="194" height="194" as="geometry" />
        </mxCell>
        <mxCell id="siTgfDKvwFskkdA27iEr-113" value="" style="html=1;shape=mxgraph.infographic.bannerHalfFold;dx=40;dx2=20;notch=15;fillColor=#10739E;strokeColor=none;align=left;verticalAlign=top;fontColor=#ffffff;fontSize=14;fontStyle=1;spacingLeft=25;spacingTop=5;flipH=0;flipV=1;direction=north;" vertex="1" parent="siTgfDKvwFskkdA27iEr-1">
          <mxGeometry x="-1260" y="2138.5" width="200" height="200" as="geometry" />
        </mxCell>
        <mxCell id="siTgfDKvwFskkdA27iEr-114" value="" style="html=1;shape=mxgraph.infographic.bannerHalfFold;dx=40;dx2=20;notch=15;fillColor=#10739E;strokeColor=none;align=left;verticalAlign=top;fontColor=#ffffff;fontSize=14;fontStyle=1;spacingLeft=25;spacingTop=5;flipH=1;flipV=1;direction=east;" vertex="1" parent="siTgfDKvwFskkdA27iEr-1">
          <mxGeometry x="-1150" y="2050" width="200" height="200" as="geometry" />
        </mxCell>
        <mxCell id="siTgfDKvwFskkdA27iEr-115" value="" style="shape=flexArrow;endArrow=classic;html=1;" edge="1" parent="siTgfDKvwFskkdA27iEr-1">
          <mxGeometry width="50" height="50" relative="1" as="geometry">
            <mxPoint x="-1181" y="1610" as="sourcePoint" />
            <mxPoint x="-1180.8300000000004" y="1510" as="targetPoint" />
          </mxGeometry>
        </mxCell>
        <mxCell id="siTgfDKvwFskkdA27iEr-116" value="" style="shape=flexArrow;endArrow=classic;html=1;" edge="1" parent="siTgfDKvwFskkdA27iEr-1">
          <mxGeometry width="50" height="50" relative="1" as="geometry">
            <mxPoint x="381.35878787878755" y="1725.7142857142858" as="sourcePoint" />
            <mxPoint x="269.9951515151515" y="1725.7142857142858" as="targetPoint" />
          </mxGeometry>
        </mxCell>
        <mxCell id="siTgfDKvwFskkdA27iEr-117" value="" style="group" vertex="1" connectable="0" parent="siTgfDKvwFskkdA27iEr-1">
          <mxGeometry x="450" y="2120" width="283.0799999999999" height="307" as="geometry" />
        </mxCell>
        <mxCell id="siTgfDKvwFskkdA27iEr-118" value="" style="aspect=fixed;html=1;points=[];align=center;image;fontSize=12;image=img/lib/azure2/databases/Cache_Redis.svg;" vertex="1" parent="siTgfDKvwFskkdA27iEr-117">
          <mxGeometry width="283.08" height="230" as="geometry" />
        </mxCell>
        <mxCell id="siTgfDKvwFskkdA27iEr-123" value="" style="shape=flexArrow;endArrow=classic;html=1;fontSize=26;width=40;endSize=11.999999999999998;endWidth=56.25;fillColor=#f8cecc;strokeColor=#b85450;" edge="1" parent="siTgfDKvwFskkdA27iEr-1">
          <mxGeometry width="50" height="50" relative="1" as="geometry">
            <mxPoint x="-1450" y="1800" as="sourcePoint" />
            <mxPoint x="-1330" y="1800" as="targetPoint" />
          </mxGeometry>
        </mxCell>
      </root>
    </mxGraphModel>
  </diagram>
  <diagram id="ArEEHtjSDQIqFf5FDb1a" name="第 3 页">
    <mxGraphModel dx="4455" dy="1635" grid="1" gridSize="10" guides="1" tooltips="1" connect="1" arrows="1" fold="1" page="1" pageScale="1" pageWidth="850" pageHeight="1100" math="0" shadow="0">
      <root>
        <mxCell id="L7CDMDjDY7MGvL0Do53L-0" />
        <mxCell id="L7CDMDjDY7MGvL0Do53L-1" parent="L7CDMDjDY7MGvL0Do53L-0" />
        <mxCell id="L7CDMDjDY7MGvL0Do53L-2" value="" style="shape=flexArrow;endArrow=classic;html=1;" edge="1" parent="L7CDMDjDY7MGvL0Do53L-1">
          <mxGeometry width="50" height="50" relative="1" as="geometry">
            <mxPoint x="-580" y="1748.57" as="sourcePoint" />
            <mxPoint x="-320" y="1520" as="targetPoint" />
          </mxGeometry>
        </mxCell>
        <mxCell id="L7CDMDjDY7MGvL0Do53L-3" value="" style="shape=flexArrow;endArrow=classic;html=1;" edge="1" parent="L7CDMDjDY7MGvL0Do53L-1">
          <mxGeometry width="50" height="50" relative="1" as="geometry">
            <mxPoint x="2360" y="1239" as="sourcePoint" />
            <mxPoint x="2440" y="1239" as="targetPoint" />
          </mxGeometry>
        </mxCell>
        <mxCell id="L7CDMDjDY7MGvL0Do53L-20" value="" style="shape=flexArrow;endArrow=classic;html=1;" edge="1" parent="L7CDMDjDY7MGvL0Do53L-1">
          <mxGeometry width="50" height="50" relative="1" as="geometry">
            <mxPoint x="1910" y="1910" as="sourcePoint" />
            <mxPoint x="1908.5699999999997" y="1830" as="targetPoint" />
          </mxGeometry>
        </mxCell>
        <mxCell id="L7CDMDjDY7MGvL0Do53L-21" value="" style="group" vertex="1" connectable="0" parent="L7CDMDjDY7MGvL0Do53L-1">
          <mxGeometry x="2970" y="1900" width="440" height="400" as="geometry" />
        </mxCell>
        <mxCell id="L7CDMDjDY7MGvL0Do53L-22" value="" style="verticalLabelPosition=bottom;verticalAlign=top;html=1;shape=mxgraph.basic.partConcEllipse;fillColor=#10739E;strokeColor=#ffffff;startAngle=0.75;endAngle=0.08;arcWidth=0.16;strokeWidth=3;fontSize=28;" vertex="1" parent="L7CDMDjDY7MGvL0Do53L-21">
          <mxGeometry width="440" height="400" as="geometry" />
        </mxCell>
        <mxCell id="L7CDMDjDY7MGvL0Do53L-23" value="" style="verticalLabelPosition=bottom;verticalAlign=top;html=1;shape=mxgraph.basic.partConcEllipse;fillColor=#F2931E;strokeColor=#ffffff;startAngle=0.91;endAngle=0.17;arcWidth=0.18;strokeWidth=3;fontSize=28;" vertex="1" parent="L7CDMDjDY7MGvL0Do53L-21">
          <mxGeometry x="33.84615384615385" y="30.769230769230774" width="372.3076923076923" height="338.46153846153845" as="geometry" />
        </mxCell>
        <mxCell id="L7CDMDjDY7MGvL0Do53L-24" value="" style="verticalLabelPosition=bottom;verticalAlign=top;html=1;shape=mxgraph.basic.partConcEllipse;fillColor=#AE4132;strokeColor=#ffffff;startAngle=0.75;endAngle=0.11;arcWidth=0.22;strokeWidth=3;fontSize=28;" vertex="1" parent="L7CDMDjDY7MGvL0Do53L-21">
          <mxGeometry x="67.6923076923077" y="61.53846153846155" width="304.6153846153846" height="276.9230769230769" as="geometry" />
        </mxCell>
        <mxCell id="L7CDMDjDY7MGvL0Do53L-25" value="" style="verticalLabelPosition=bottom;verticalAlign=top;html=1;shape=mxgraph.basic.partConcEllipse;fillColor=#12AAB5;strokeColor=#ffffff;startAngle=0.02;endAngle=0.25;arcWidth=0.29;strokeWidth=3;fontSize=28;" vertex="1" parent="L7CDMDjDY7MGvL0Do53L-21">
          <mxGeometry x="101.53846153846153" y="92.30769230769232" width="236.92307692307688" height="215.3846153846154" as="geometry" />
        </mxCell>
        <mxCell id="L7CDMDjDY7MGvL0Do53L-26" value="模型训练" style="verticalLabelPosition=bottom;verticalAlign=top;html=1;shape=mxgraph.basic.partConcEllipse;fillColor=#CCCCCC;strokeColor=#ffffff;startAngle=0.75;endAngle=0.25;arcWidth=0.4;strokeWidth=3;fontSize=28;" vertex="1" parent="L7CDMDjDY7MGvL0Do53L-21">
          <mxGeometry x="135.3846153846154" y="123.0769230769231" width="169.23076923076923" height="153.84615384615384" as="geometry" />
        </mxCell>
        <mxCell id="L7CDMDjDY7MGvL0Do53L-27" value="" style="html=1;shape=mxgraph.basic.pie;fillColor=#23445D;strokeColor=#ffffff;startAngle=0.75;endAngle=0.25;fontSize=16;fontColor=#FFFFFF;verticalAlign=top;fontStyle=1;strokeWidth=3;" vertex="1" parent="L7CDMDjDY7MGvL0Do53L-21">
          <mxGeometry x="169.23076923076923" y="153.84615384615384" width="101.53846153846153" height="92.30769230769232" as="geometry" />
        </mxCell>
        <mxCell id="L7CDMDjDY7MGvL0Do53L-28" value="" style="shape=flexArrow;endArrow=classic;html=1;" edge="1" parent="L7CDMDjDY7MGvL0Do53L-1">
          <mxGeometry width="50" height="50" relative="1" as="geometry">
            <mxPoint x="3170" y="1840" as="sourcePoint" />
            <mxPoint x="3169.58" y="1890" as="targetPoint" />
          </mxGeometry>
        </mxCell>
        <mxCell id="L7CDMDjDY7MGvL0Do53L-29" value="" style="group" vertex="1" connectable="0" parent="L7CDMDjDY7MGvL0Do53L-1">
          <mxGeometry x="360" y="1680" width="410" height="360" as="geometry" />
        </mxCell>
        <mxCell id="L7CDMDjDY7MGvL0Do53L-30" value="" style="group" vertex="1" connectable="0" parent="L7CDMDjDY7MGvL0Do53L-29">
          <mxGeometry x="1960" y="280" width="410" height="273.85892116182566" as="geometry" />
        </mxCell>
        <mxCell id="L7CDMDjDY7MGvL0Do53L-31" value="" style="verticalLabelPosition=bottom;verticalAlign=top;html=1;shape=mxgraph.infographic.shadedCube;isoAngle=15;fillColor=#12AAB5;strokeColor=none;shadow=0;fontSize=28;" vertex="1" parent="L7CDMDjDY7MGvL0Do53L-30">
          <mxGeometry x="292.85714285714283" width="117.14285714285712" height="162.45868204515085" as="geometry" />
        </mxCell>
        <mxCell id="L7CDMDjDY7MGvL0Do53L-32" value="" style="verticalLabelPosition=bottom;verticalAlign=top;html=1;shape=mxgraph.infographic.shadedCube;isoAngle=15;fillColor=#23445D;strokeColor=none;shadow=0;fontSize=28;" vertex="1" parent="L7CDMDjDY7MGvL0Do53L-30">
          <mxGeometry x="219.64285714285717" y="74.26682607778325" width="117.14285714285712" height="116.04191574653632" as="geometry" />
        </mxCell>
        <mxCell id="L7CDMDjDY7MGvL0Do53L-33" value="" style="verticalLabelPosition=bottom;verticalAlign=top;html=1;shape=mxgraph.infographic.shadedCube;isoAngle=15;fillColor=#AE4132;strokeColor=none;shadow=0;fontSize=28;" vertex="1" parent="L7CDMDjDY7MGvL0Do53L-30">
          <mxGeometry x="146.42857142857142" y="9.283353259722906" width="117.14285714285712" height="208.87544834376538" as="geometry" />
        </mxCell>
        <mxCell id="L7CDMDjDY7MGvL0Do53L-34" value="" style="verticalLabelPosition=bottom;verticalAlign=top;html=1;shape=mxgraph.infographic.shadedCube;isoAngle=15;fillColor=#F2931E;strokeColor=none;shadow=0;fontSize=28;" vertex="1" parent="L7CDMDjDY7MGvL0Do53L-30">
          <mxGeometry x="73.21428571428571" y="13.925029889584357" width="117.14285714285712" height="232.08383149307264" as="geometry" />
        </mxCell>
        <mxCell id="L7CDMDjDY7MGvL0Do53L-35" value="" style="verticalLabelPosition=bottom;verticalAlign=top;html=1;shape=mxgraph.infographic.shadedCube;isoAngle=15;fillColor=#10739E;strokeColor=none;shadow=0;fontSize=28;" vertex="1" parent="L7CDMDjDY7MGvL0Do53L-30">
          <mxGeometry y="88.19185596736762" width="117.14285714285712" height="185.6670651944581" as="geometry" />
        </mxCell>
        <mxCell id="L7CDMDjDY7MGvL0Do53L-36" value="模型评估" style="text;html=1;strokeColor=none;fillColor=none;align=center;verticalAlign=middle;whiteSpace=wrap;rounded=0;fontSize=26;" vertex="1" parent="L7CDMDjDY7MGvL0Do53L-29">
          <mxGeometry x="2089.995" y="559.9967219917012" width="172.96875" height="44.813278008298745" as="geometry" />
        </mxCell>
        <mxCell id="L7CDMDjDY7MGvL0Do53L-68" value="" style="group" vertex="1" connectable="0" parent="L7CDMDjDY7MGvL0Do53L-1">
          <mxGeometry x="1600" y="980" width="200" height="470" as="geometry" />
        </mxCell>
        <mxCell id="L7CDMDjDY7MGvL0Do53L-69" value="" style="strokeWidth=1;shadow=0;dashed=0;align=center;html=1;shape=mxgraph.mockup.text.callout;linkText=;textSize=17;textColor=#666666;callDir=NW;callStyle=line;fontSize=17;fontColor=#10739E;align=left;verticalAlign=top;strokeColor=#666666;fillColor=#4D9900;flipV=0;fontStyle=1;rotation=-180;" vertex="1" parent="L7CDMDjDY7MGvL0Do53L-68">
          <mxGeometry x="6.655574043261232" y="276.36704119850185" width="193.34442595673877" height="89.77528089887639" as="geometry" />
        </mxCell>
        <mxCell id="L7CDMDjDY7MGvL0Do53L-70" value="" style="strokeWidth=1;shadow=0;dashed=0;align=center;html=1;shape=mxgraph.mockup.text.callout;linkText=;textSize=17;textColor=#666666;callDir=NW;callStyle=line;fontSize=17;fontColor=#10739E;align=left;verticalAlign=top;strokeColor=#666666;fillColor=#4D9900;flipV=0;fontStyle=1;rotation=-180;" vertex="1" parent="L7CDMDjDY7MGvL0Do53L-68">
          <mxGeometry x="6.655574043261232" y="311.5730337078652" width="193.34442595673877" height="158.42696629213484" as="geometry" />
        </mxCell>
        <mxCell id="L7CDMDjDY7MGvL0Do53L-71" value="" style="strokeWidth=1;shadow=0;dashed=0;align=center;html=1;shape=mxgraph.mockup.text.callout;linkText=;textSize=17;textColor=#666666;callDir=NW;callStyle=line;fontSize=17;fontColor=#10739E;align=left;verticalAlign=top;strokeColor=#666666;fillColor=#4D9900;flipV=0;fontStyle=1;rotation=-180;" vertex="1" parent="L7CDMDjDY7MGvL0Do53L-68">
          <mxGeometry y="220.0374531835206" width="193.34442595673877" height="20.243445692883896" as="geometry" />
        </mxCell>
        <mxCell id="L7CDMDjDY7MGvL0Do53L-72" value="" style="strokeWidth=1;shadow=0;dashed=0;align=center;html=1;shape=mxgraph.mockup.text.callout;linkText=;textSize=17;textColor=#666666;callDir=NW;callStyle=line;fontSize=17;fontColor=#10739E;align=left;verticalAlign=top;strokeColor=#666666;fillColor=#4D9900;flipV=1;fontStyle=1;rotation=-180;flipH=0;" vertex="1" parent="L7CDMDjDY7MGvL0Do53L-68">
          <mxGeometry x="0.3327787021630616" y="91.53558052434457" width="186.68885191347755" height="91.53558052434457" as="geometry" />
        </mxCell>
        <mxCell id="L7CDMDjDY7MGvL0Do53L-73" value="" style="strokeWidth=1;shadow=0;dashed=0;align=center;html=1;shape=mxgraph.mockup.text.callout;linkText=;textSize=17;textColor=#666666;callDir=NW;callStyle=line;fontSize=17;fontColor=#10739E;align=left;verticalAlign=top;strokeColor=#666666;fillColor=#4D9900;flipV=1;fontStyle=1;rotation=-180;flipH=0;" vertex="1" parent="L7CDMDjDY7MGvL0Do53L-68">
          <mxGeometry x="0.3327787021630616" width="186.68885191347755" height="132.02247191011236" as="geometry" />
        </mxCell>
        <mxCell id="L7CDMDjDY7MGvL0Do53L-74" value="" style="group" vertex="1" connectable="0" parent="L7CDMDjDY7MGvL0Do53L-1">
          <mxGeometry x="-900" y="1580" width="320" height="345.5" as="geometry" />
        </mxCell>
        <mxCell id="L7CDMDjDY7MGvL0Do53L-75" value="时间" style="shape=hexagon;strokeWidth=4;html=1;fillColor=#F5AB50;strokeColor=#ffffff;shadow=0;fontSize=28;fontColor=#FFFFFF;align=center;fontStyle=0;whiteSpace=wrap;spacing=10;rounded=0;" vertex="1" parent="L7CDMDjDY7MGvL0Do53L-74">
          <mxGeometry y="57.583333333333336" width="128" height="115.16666666666667" as="geometry" />
        </mxCell>
        <mxCell id="L7CDMDjDY7MGvL0Do53L-76" value="习惯" style="shape=hexagon;strokeWidth=4;html=1;fillColor=#E85642;strokeColor=#ffffff;shadow=0;fontSize=28;fontColor=#FFFFFF;align=center;fontStyle=0;whiteSpace=wrap;spacing=10;rounded=0;" vertex="1" parent="L7CDMDjDY7MGvL0Do53L-74">
          <mxGeometry y="172.75" width="128" height="115.16666666666667" as="geometry" />
        </mxCell>
        <mxCell id="L7CDMDjDY7MGvL0Do53L-77" value="行为" style="shape=hexagon;strokeWidth=4;html=1;fillColor=#12AAB5;strokeColor=#ffffff;shadow=0;fontSize=28;fontColor=#FFFFFF;align=center;fontStyle=0;whiteSpace=wrap;spacing=10;rounded=0;" vertex="1" parent="L7CDMDjDY7MGvL0Do53L-74">
          <mxGeometry x="96" y="115.16666666666667" width="128" height="115.16666666666667" as="geometry" />
        </mxCell>
        <mxCell id="L7CDMDjDY7MGvL0Do53L-78" value="埋点" style="shape=hexagon;strokeWidth=4;html=1;fillColor=#1699D3;strokeColor=#ffffff;shadow=0;fontSize=28;fontColor=#FFFFFF;align=center;fontStyle=0;whiteSpace=wrap;spacing=10;rounded=0;" vertex="1" parent="L7CDMDjDY7MGvL0Do53L-74">
          <mxGeometry x="96" width="128" height="115.16666666666667" as="geometry" />
        </mxCell>
        <mxCell id="L7CDMDjDY7MGvL0Do53L-79" value="图像" style="shape=hexagon;strokeWidth=4;html=1;fillColor=#736CA8;strokeColor=#ffffff;shadow=0;fontSize=28;fontColor=#FFFFFF;align=center;fontStyle=0;whiteSpace=wrap;spacing=10;rounded=0;" vertex="1" parent="L7CDMDjDY7MGvL0Do53L-74">
          <mxGeometry x="192" y="57.583333333333336" width="128" height="115.16666666666667" as="geometry" />
        </mxCell>
        <mxCell id="L7CDMDjDY7MGvL0Do53L-80" value="搜索" style="shape=hexagon;strokeWidth=4;html=1;fillColor=#2F5B7C;strokeColor=#ffffff;shadow=0;fontSize=28;fontColor=#FFFFFF;align=center;fontStyle=0;whiteSpace=wrap;spacing=10;rounded=0;" vertex="1" parent="L7CDMDjDY7MGvL0Do53L-74">
          <mxGeometry x="192" y="172.75" width="128" height="115.16666666666667" as="geometry" />
        </mxCell>
        <mxCell id="L7CDMDjDY7MGvL0Do53L-81" value="app" style="shape=hexagon;strokeWidth=4;html=1;fillColor=#777777;strokeColor=#ffffff;shadow=0;fontSize=28;fontColor=#FFFFFF;align=center;fontStyle=0;whiteSpace=wrap;spacing=10;rounded=0;" vertex="1" parent="L7CDMDjDY7MGvL0Do53L-74">
          <mxGeometry x="96" y="230.33333333333334" width="128" height="115.16666666666667" as="geometry" />
        </mxCell>
        <mxCell id="L7CDMDjDY7MGvL0Do53L-82" value="" style="shape=flexArrow;endArrow=classic;html=1;" edge="1" parent="L7CDMDjDY7MGvL0Do53L-1">
          <mxGeometry width="50" height="50" relative="1" as="geometry">
            <mxPoint x="2290" y="2050" as="sourcePoint" />
            <mxPoint x="2140" y="2050" as="targetPoint" />
          </mxGeometry>
        </mxCell>
        <mxCell id="L7CDMDjDY7MGvL0Do53L-83" value="" style="shape=flexArrow;endArrow=classic;html=1;" edge="1" parent="L7CDMDjDY7MGvL0Do53L-1">
          <mxGeometry width="50" height="50" relative="1" as="geometry">
            <mxPoint x="598.5" y="2030" as="sourcePoint" />
            <mxPoint x="599" y="2160" as="targetPoint" />
          </mxGeometry>
        </mxCell>
        <mxCell id="L7CDMDjDY7MGvL0Do53L-84" value="" style="group" vertex="1" connectable="0" parent="L7CDMDjDY7MGvL0Do53L-1">
          <mxGeometry x="450" y="2171.5" width="300" height="207" as="geometry" />
        </mxCell>
        <mxCell id="L7CDMDjDY7MGvL0Do53L-85" value="" style="html=1;shape=mxgraph.infographic.pyramidStep;fillColor=#F2931E;strokeColor=none;shadow=0;fontSize=28;" vertex="1" parent="L7CDMDjDY7MGvL0Do53L-84">
          <mxGeometry x="131.25" width="37.5" height="207" as="geometry" />
        </mxCell>
        <mxCell id="L7CDMDjDY7MGvL0Do53L-86" value="" style="html=1;shape=mxgraph.infographic.pyramidStep;fillColor=#F8C382;strokeColor=none;shadow=0;fontSize=28;" vertex="1" parent="L7CDMDjDY7MGvL0Do53L-84">
          <mxGeometry x="112.5" y="21.789473684210527" width="75" height="185.21052631578948" as="geometry" />
        </mxCell>
        <mxCell id="L7CDMDjDY7MGvL0Do53L-87" value="" style="html=1;shape=mxgraph.infographic.pyramidStep;fillColor=#FCE7CD;strokeColor=none;shadow=0;fontSize=28;" vertex="1" parent="L7CDMDjDY7MGvL0Do53L-84">
          <mxGeometry x="93.75" y="43.578947368421055" width="112.5" height="163.42105263157896" as="geometry" />
        </mxCell>
        <mxCell id="L7CDMDjDY7MGvL0Do53L-88" value="" style="html=1;shape=mxgraph.infographic.pyramidStep;fillColor=#BAC8D3;strokeColor=none;shadow=0;fontSize=28;" vertex="1" parent="L7CDMDjDY7MGvL0Do53L-84">
          <mxGeometry x="75" y="65.36842105263159" width="150" height="141.63157894736844" as="geometry" />
        </mxCell>
        <mxCell id="L7CDMDjDY7MGvL0Do53L-89" value="" style="html=1;shape=mxgraph.infographic.pyramidStep;fillColor=#5D7F99;strokeColor=none;shadow=0;fontSize=28;" vertex="1" parent="L7CDMDjDY7MGvL0Do53L-84">
          <mxGeometry x="56.25" y="87.15789473684211" width="187.5" height="119.8421052631579" as="geometry" />
        </mxCell>
        <mxCell id="L7CDMDjDY7MGvL0Do53L-90" value="" style="html=1;shape=mxgraph.infographic.pyramidStep;fillColor=#2F5B7C;strokeColor=none;shadow=0;fontSize=28;" vertex="1" parent="L7CDMDjDY7MGvL0Do53L-84">
          <mxGeometry x="37.5" y="108.94736842105263" width="225" height="98.05263157894737" as="geometry" />
        </mxCell>
        <mxCell id="L7CDMDjDY7MGvL0Do53L-91" value="" style="html=1;shape=mxgraph.infographic.pyramidStep;fillColor=#23445D;strokeColor=none;shadow=0;fontSize=28;" vertex="1" parent="L7CDMDjDY7MGvL0Do53L-84">
          <mxGeometry x="18.75" y="130.73684210526318" width="262.5" height="76.26315789473685" as="geometry" />
        </mxCell>
        <mxCell id="L7CDMDjDY7MGvL0Do53L-92" value="" style="html=1;shape=mxgraph.infographic.pyramidStep;fillColor=#333333;strokeColor=none;shadow=0;fontSize=28;" vertex="1" parent="L7CDMDjDY7MGvL0Do53L-84">
          <mxGeometry y="152.5263157894737" width="300" height="54.473684210526315" as="geometry" />
        </mxCell>
        <mxCell id="L7CDMDjDY7MGvL0Do53L-93" value="构建镜像" style="text;html=1;strokeColor=none;fillColor=none;align=center;verticalAlign=middle;whiteSpace=wrap;rounded=0;fontSize=28;" vertex="1" parent="L7CDMDjDY7MGvL0Do53L-1">
          <mxGeometry x="515" y="2447" width="170" height="20" as="geometry" />
        </mxCell>
        <mxCell id="L7CDMDjDY7MGvL0Do53L-106" value="" style="shape=flexArrow;endArrow=classic;html=1;" edge="1" parent="L7CDMDjDY7MGvL0Do53L-1">
          <mxGeometry width="50" height="50" relative="1" as="geometry">
            <mxPoint x="366.5" y="2770" as="sourcePoint" />
            <mxPoint x="206.5" y="2770" as="targetPoint" />
          </mxGeometry>
        </mxCell>
        <mxCell id="L7CDMDjDY7MGvL0Do53L-107" value="云端服务器" style="shape=image;html=1;verticalAlign=top;verticalLabelPosition=bottom;labelBackgroundColor=#ffffff;imageAspect=0;aspect=fixed;image=https://cdn2.iconfinder.com/data/icons/whcompare-isometric-web-hosting-servers/50/cloud-server-128.png;fontSize=26;" vertex="1" parent="L7CDMDjDY7MGvL0Do53L-1">
          <mxGeometry x="-880" y="2058.5" width="360" height="360" as="geometry" />
        </mxCell>
        <mxCell id="L7CDMDjDY7MGvL0Do53L-108" value="&lt;font style=&quot;font-size: 20px&quot;&gt;step2&lt;/font&gt;" style="html=1;shape=mxgraph.infographic.ribbonSimple;notch1=20;notch2=20;fillColor=#10739E;strokeColor=none;align=center;verticalAlign=middle;fontColor=#ffffff;fontSize=14;fontStyle=1;" vertex="1" parent="L7CDMDjDY7MGvL0Do53L-1">
          <mxGeometry x="-463.5" y="2660" width="200" height="40" as="geometry" />
        </mxCell>
        <mxCell id="L7CDMDjDY7MGvL0Do53L-109" value="&lt;font style=&quot;font-size: 20px&quot;&gt;step3&lt;/font&gt;" style="html=1;shape=mxgraph.infographic.ribbonSimple;notch1=20;notch2=20;fillColor=#10739E;strokeColor=none;align=center;verticalAlign=middle;fontColor=#ffffff;fontSize=14;fontStyle=1;flipH=1;" vertex="1" parent="L7CDMDjDY7MGvL0Do53L-1">
          <mxGeometry x="-463.5" y="2813" width="200" height="40" as="geometry" />
        </mxCell>
        <mxCell id="L7CDMDjDY7MGvL0Do53L-110" value="" style="group" vertex="1" connectable="0" parent="L7CDMDjDY7MGvL0Do53L-1">
          <mxGeometry x="-1280" y="1660" width="194" height="240" as="geometry" />
        </mxCell>
        <mxCell id="L7CDMDjDY7MGvL0Do53L-111" value="" style="shape=image;html=1;verticalAlign=top;verticalLabelPosition=bottom;labelBackgroundColor=#ffffff;imageAspect=0;aspect=fixed;image=https://cdn3.iconfinder.com/data/icons/beos/BeOS_print_server.png;fontSize=26;" vertex="1" parent="L7CDMDjDY7MGvL0Do53L-110">
          <mxGeometry width="194" height="194" as="geometry" />
        </mxCell>
        <mxCell id="L7CDMDjDY7MGvL0Do53L-112" value="场景终端" style="text;html=1;strokeColor=none;fillColor=none;align=center;verticalAlign=middle;whiteSpace=wrap;rounded=0;fontSize=26;" vertex="1" parent="L7CDMDjDY7MGvL0Do53L-110">
          <mxGeometry y="220" width="190" height="20" as="geometry" />
        </mxCell>
        <mxCell id="L7CDMDjDY7MGvL0Do53L-113" value="&lt;font style=&quot;font-size: 20px&quot;&gt;&lt;span style=&quot;background-color: rgb(0 , 0 , 0)&quot;&gt;step4&lt;/span&gt;&lt;/font&gt;" style="html=1;shape=mxgraph.infographic.bannerHalfFold;dx=40;dx2=20;notch=15;fillColor=#10739E;strokeColor=none;align=left;verticalAlign=top;fontColor=#ffffff;fontSize=14;fontStyle=1;spacingLeft=25;spacingTop=5;flipH=0;flipV=1;direction=north;" vertex="1" parent="L7CDMDjDY7MGvL0Do53L-1">
          <mxGeometry x="-1260" y="2138.5" width="200" height="200" as="geometry" />
        </mxCell>
        <mxCell id="L7CDMDjDY7MGvL0Do53L-114" value="&lt;font style=&quot;font-size: 20px&quot;&gt;&lt;span style=&quot;background-color: rgb(0 , 0 , 0)&quot;&gt;step1&lt;/span&gt;&lt;/font&gt;" style="html=1;shape=mxgraph.infographic.bannerHalfFold;dx=40;dx2=20;notch=15;fillColor=#10739E;strokeColor=none;align=left;verticalAlign=top;fontColor=#ffffff;fontSize=14;fontStyle=1;spacingLeft=25;spacingTop=5;flipH=1;flipV=1;direction=east;" vertex="1" parent="L7CDMDjDY7MGvL0Do53L-1">
          <mxGeometry x="-1150" y="2050" width="200" height="200" as="geometry" />
        </mxCell>
        <mxCell id="L7CDMDjDY7MGvL0Do53L-115" value="" style="shape=flexArrow;endArrow=classic;html=1;" edge="1" parent="L7CDMDjDY7MGvL0Do53L-1">
          <mxGeometry width="50" height="50" relative="1" as="geometry">
            <mxPoint x="-1060" y="1760" as="sourcePoint" />
            <mxPoint x="-890" y="1760" as="targetPoint" />
          </mxGeometry>
        </mxCell>
        <mxCell id="L7CDMDjDY7MGvL0Do53L-116" value="" style="shape=flexArrow;endArrow=classic;html=1;" edge="1" parent="L7CDMDjDY7MGvL0Do53L-1">
          <mxGeometry width="50" height="50" relative="1" as="geometry">
            <mxPoint x="2941.3587878787876" y="2065.714285714286" as="sourcePoint" />
            <mxPoint x="2829.9951515151515" y="2065.714285714286" as="targetPoint" />
          </mxGeometry>
        </mxCell>
        <mxCell id="L7CDMDjDY7MGvL0Do53L-117" value="" style="group" vertex="1" connectable="0" parent="L7CDMDjDY7MGvL0Do53L-1">
          <mxGeometry x="-170" y="2120" width="283.0799999999999" height="307" as="geometry" />
        </mxCell>
        <mxCell id="L7CDMDjDY7MGvL0Do53L-118" value="" style="aspect=fixed;html=1;points=[];align=center;image;fontSize=12;image=img/lib/azure2/databases/Cache_Redis.svg;" vertex="1" parent="L7CDMDjDY7MGvL0Do53L-117">
          <mxGeometry width="283.08" height="230" as="geometry" />
        </mxCell>
        <mxCell id="L7CDMDjDY7MGvL0Do53L-119" value="数据库" style="text;html=1;strokeColor=none;fillColor=none;align=center;verticalAlign=middle;whiteSpace=wrap;rounded=0;fontSize=28;" vertex="1" parent="L7CDMDjDY7MGvL0Do53L-117">
          <mxGeometry x="56.539999999999964" y="287" width="170" height="20" as="geometry" />
        </mxCell>
        <mxCell id="L7CDMDjDY7MGvL0Do53L-123" value="" style="shape=flexArrow;endArrow=classic;html=1;fontSize=26;width=40;endSize=11.999999999999998;endWidth=56.25;fillColor=#f8cecc;strokeColor=#b85450;" edge="1" parent="L7CDMDjDY7MGvL0Do53L-1">
          <mxGeometry width="50" height="50" relative="1" as="geometry">
            <mxPoint x="-1450" y="1800" as="sourcePoint" />
            <mxPoint x="-1330" y="1800" as="targetPoint" />
          </mxGeometry>
        </mxCell>
        <mxCell id="L7CDMDjDY7MGvL0Do53L-124" value="" style="group" vertex="1" connectable="0" parent="L7CDMDjDY7MGvL0Do53L-1">
          <mxGeometry x="-290" y="1120" width="480" height="420" as="geometry" />
        </mxCell>
        <mxCell id="L7CDMDjDY7MGvL0Do53L-37" value="" style="group;fontSize=15;" vertex="1" connectable="0" parent="L7CDMDjDY7MGvL0Do53L-124">
          <mxGeometry width="480" height="360" as="geometry" />
        </mxCell>
        <mxCell id="L7CDMDjDY7MGvL0Do53L-38" value="数据挖掘" style="triangle;whiteSpace=wrap;html=1;shadow=0;strokeColor=#FFFFFF;strokeWidth=6;fillColor=#10739E;fontSize=22;fontColor=#FFFFFF;align=center;direction=north;fontStyle=1" vertex="1" parent="L7CDMDjDY7MGvL0Do53L-37">
          <mxGeometry x="120" width="240" height="180" as="geometry" />
        </mxCell>
        <mxCell id="L7CDMDjDY7MGvL0Do53L-39" value="神经网络" style="triangle;whiteSpace=wrap;html=1;shadow=0;strokeColor=#FFFFFF;strokeWidth=6;fillColor=#F2931E;fontSize=22;fontColor=#FFFFFF;align=center;direction=north;fontStyle=1" vertex="1" parent="L7CDMDjDY7MGvL0Do53L-37">
          <mxGeometry y="180" width="240" height="180" as="geometry" />
        </mxCell>
        <mxCell id="L7CDMDjDY7MGvL0Do53L-40" value="图像识别" style="triangle;whiteSpace=wrap;html=1;shadow=0;strokeColor=#FFFFFF;strokeWidth=6;fillColor=#AE4132;fontSize=22;fontColor=#FFFFFF;align=center;direction=south;fontStyle=1" vertex="1" parent="L7CDMDjDY7MGvL0Do53L-37">
          <mxGeometry x="120" y="180" width="240" height="180" as="geometry" />
        </mxCell>
        <mxCell id="L7CDMDjDY7MGvL0Do53L-41" value="意图识别" style="triangle;whiteSpace=wrap;html=1;shadow=0;strokeColor=#FFFFFF;strokeWidth=6;fillColor=#23445D;fontSize=22;fontColor=#FFFFFF;align=center;direction=north;fontStyle=1" vertex="1" parent="L7CDMDjDY7MGvL0Do53L-37">
          <mxGeometry x="240" y="180" width="240" height="180" as="geometry" />
        </mxCell>
        <mxCell id="L7CDMDjDY7MGvL0Do53L-120" value="AI引擎" style="text;html=1;align=center;verticalAlign=middle;resizable=0;points=[];autosize=1;strokeColor=none;fillColor=none;fontSize=26;" vertex="1" parent="L7CDMDjDY7MGvL0Do53L-124">
          <mxGeometry x="195" y="380" width="90" height="40" as="geometry" />
        </mxCell>
        <mxCell id="L7CDMDjDY7MGvL0Do53L-125" value="" style="group" vertex="1" connectable="0" parent="L7CDMDjDY7MGvL0Do53L-1">
          <mxGeometry x="1810" y="960" width="540" height="570" as="geometry" />
        </mxCell>
        <mxCell id="L7CDMDjDY7MGvL0Do53L-42" value="" style="group" vertex="1" connectable="0" parent="L7CDMDjDY7MGvL0Do53L-125">
          <mxGeometry width="540" height="520" as="geometry" />
        </mxCell>
        <mxCell id="L7CDMDjDY7MGvL0Do53L-43" value="" style="html=1;shape=mxgraph.infographic.ribbonSimple;notch1=20;notch2=0;fillColor=#10739E;strokeColor=none;shadow=1;" vertex="1" parent="L7CDMDjDY7MGvL0Do53L-42">
          <mxGeometry width="529.4117647058822" height="88.13559322033898" as="geometry" />
        </mxCell>
        <mxCell id="L7CDMDjDY7MGvL0Do53L-44" value="" style="shape=step;perimeter=stepPerimeter;whiteSpace=wrap;html=1;fixedSize=1;shadow=0;strokeColor=none;strokeWidth=6;fillColor=#CCCCCC;size=20;" vertex="1" parent="L7CDMDjDY7MGvL0Do53L-43">
          <mxGeometry y="0.5" width="30" height="40" relative="1" as="geometry">
            <mxPoint x="150" y="-20" as="offset" />
          </mxGeometry>
        </mxCell>
        <mxCell id="L7CDMDjDY7MGvL0Do53L-45" value="&lt;font style=&quot;font-size: 22px&quot;&gt;&lt;b&gt;游戏&lt;/b&gt;&lt;/font&gt;&lt;br&gt;&lt;div style=&quot;font-size: 20px&quot;&gt;&lt;font style=&quot;font-size: 20px&quot;&gt;RGP，角色扮演、二次元&lt;/font&gt;&lt;/div&gt;&lt;div style=&quot;font-size: 20px&quot;&gt;&lt;font style=&quot;font-size: 20px&quot;&gt;&lt;font style=&quot;font-size: 20px&quot;&gt;双人、古代换装、做饭&lt;/font&gt;&lt;br&gt;&lt;/font&gt;&lt;/div&gt;" style="text;strokeColor=none;fillColor=none;spacing=5;spacingTop=0;whiteSpace=wrap;overflow=hidden;rounded=0;shadow=0;fontSize=15;fontColor=#FFFFFF;align=left;html=1;" vertex="1" parent="L7CDMDjDY7MGvL0Do53L-43">
          <mxGeometry width="230" height="100" relative="1" as="geometry">
            <mxPoint x="200" as="offset" />
          </mxGeometry>
        </mxCell>
        <mxCell id="L7CDMDjDY7MGvL0Do53L-46" value="Label" style="shape=manualInput;whiteSpace=wrap;html=1;shadow=1;strokeColor=none;fillColor=#dddddd;fontSize=15;fontColor=#444444;align=right;direction=south;flipH=1;shadow=1;spacing=10;fontStyle=1;" vertex="1" parent="L7CDMDjDY7MGvL0Do53L-42">
          <mxGeometry x="434.1176470588235" y="44.06779661016949" width="105.88235294117646" height="52.881355932203384" as="geometry" />
        </mxCell>
        <mxCell id="L7CDMDjDY7MGvL0Do53L-47" value="" style="shadow=0;dashed=0;html=1;strokeColor=none;shape=mxgraph.mscae.intune.user_group;fontSize=15;fontColor=#FFFFFF;align=left;" vertex="1" parent="L7CDMDjDY7MGvL0Do53L-42">
          <mxGeometry x="52.94117647058823" y="28.20338983050847" width="52.94117647058823" height="32.61016949152542" as="geometry" />
        </mxCell>
        <mxCell id="L7CDMDjDY7MGvL0Do53L-48" value="" style="html=1;shape=mxgraph.infographic.ribbonSimple;notch1=20;notch2=0;fillColor=#F2931E;strokeColor=none;shadow=1;" vertex="1" parent="L7CDMDjDY7MGvL0Do53L-42">
          <mxGeometry y="105.76271186440677" width="529.4117647058822" height="88.13559322033898" as="geometry" />
        </mxCell>
        <mxCell id="L7CDMDjDY7MGvL0Do53L-49" value="" style="shape=step;perimeter=stepPerimeter;whiteSpace=wrap;html=1;fixedSize=1;shadow=0;strokeColor=none;strokeWidth=6;fillColor=#CCCCCC;size=20;" vertex="1" parent="L7CDMDjDY7MGvL0Do53L-48">
          <mxGeometry y="0.5" width="30" height="40" relative="1" as="geometry">
            <mxPoint x="150" y="-20" as="offset" />
          </mxGeometry>
        </mxCell>
        <mxCell id="L7CDMDjDY7MGvL0Do53L-50" value="&lt;font size=&quot;1&quot;&gt;&lt;b style=&quot;font-size: 22px&quot;&gt;影视&lt;/b&gt;&lt;/font&gt;&lt;br&gt;&lt;div style=&quot;font-size: 20px&quot;&gt;&lt;font style=&quot;font-size: 20px&quot;&gt;华语，动作，伦理、爱情&lt;/font&gt;&lt;/div&gt;&lt;div style=&quot;font-size: 20px&quot;&gt;&lt;font style=&quot;font-size: 20px&quot;&gt;宫斗、古装、军事、战争&lt;/font&gt;&lt;/div&gt;" style="text;strokeColor=none;fillColor=none;spacing=5;spacingTop=0;whiteSpace=wrap;overflow=hidden;rounded=0;shadow=0;fontSize=15;fontColor=#FFFFFF;align=left;html=1;" vertex="1" parent="L7CDMDjDY7MGvL0Do53L-48">
          <mxGeometry width="230" height="100" relative="1" as="geometry">
            <mxPoint x="200" as="offset" />
          </mxGeometry>
        </mxCell>
        <mxCell id="L7CDMDjDY7MGvL0Do53L-51" value="Label" style="shape=manualInput;whiteSpace=wrap;html=1;shadow=1;strokeColor=none;fillColor=#dddddd;fontSize=15;fontColor=#444444;align=right;direction=south;flipH=1;shadow=1;spacing=10;fontStyle=1;" vertex="1" parent="L7CDMDjDY7MGvL0Do53L-42">
          <mxGeometry x="434.1176470588235" y="149.83050847457622" width="105.88235294117646" height="52.881355932203384" as="geometry" />
        </mxCell>
        <mxCell id="L7CDMDjDY7MGvL0Do53L-52" value="" style="shadow=0;dashed=0;html=1;strokeColor=none;shape=mxgraph.mscae.intune.user_group;fontSize=15;fontColor=#FFFFFF;align=left;" vertex="1" parent="L7CDMDjDY7MGvL0Do53L-42">
          <mxGeometry x="52.94117647058823" y="133.96610169491524" width="52.94117647058823" height="32.61016949152542" as="geometry" />
        </mxCell>
        <mxCell id="L7CDMDjDY7MGvL0Do53L-53" value="" style="html=1;shape=mxgraph.infographic.ribbonSimple;notch1=20;notch2=0;fillColor=#AE4132;strokeColor=none;shadow=1;" vertex="1" parent="L7CDMDjDY7MGvL0Do53L-42">
          <mxGeometry y="211.52542372881354" width="529.4117647058822" height="88.13559322033898" as="geometry" />
        </mxCell>
        <mxCell id="L7CDMDjDY7MGvL0Do53L-54" value="" style="shape=step;perimeter=stepPerimeter;whiteSpace=wrap;html=1;fixedSize=1;shadow=0;strokeColor=none;strokeWidth=6;fillColor=#CCCCCC;size=20;" vertex="1" parent="L7CDMDjDY7MGvL0Do53L-53">
          <mxGeometry y="0.5" width="30" height="40" relative="1" as="geometry">
            <mxPoint x="150" y="-20" as="offset" />
          </mxGeometry>
        </mxCell>
        <mxCell id="L7CDMDjDY7MGvL0Do53L-55" value="&lt;font style=&quot;font-size: 22px&quot;&gt;&lt;b&gt;剧本杀&lt;/b&gt;&lt;/font&gt;&lt;br&gt;&lt;div style=&quot;font-size: 20px&quot;&gt;&lt;font style=&quot;font-size: 20px&quot;&gt;服饰、策略、剧本&lt;/font&gt;&lt;/div&gt;&lt;div style=&quot;font-size: 20px&quot;&gt;&lt;font style=&quot;font-size: 20px&quot;&gt;合作、团队、英语&lt;br&gt;&lt;/font&gt;&lt;/div&gt;" style="text;strokeColor=none;fillColor=none;spacing=5;spacingTop=0;whiteSpace=wrap;overflow=hidden;rounded=0;shadow=0;fontSize=15;fontColor=#FFFFFF;align=left;html=1;" vertex="1" parent="L7CDMDjDY7MGvL0Do53L-53">
          <mxGeometry width="230" height="100" relative="1" as="geometry">
            <mxPoint x="200" as="offset" />
          </mxGeometry>
        </mxCell>
        <mxCell id="L7CDMDjDY7MGvL0Do53L-56" value="Label" style="shape=manualInput;whiteSpace=wrap;html=1;shadow=1;strokeColor=none;fillColor=#dddddd;fontSize=15;fontColor=#444444;align=right;direction=south;flipH=1;shadow=1;spacing=10;fontStyle=1;" vertex="1" parent="L7CDMDjDY7MGvL0Do53L-42">
          <mxGeometry x="434.1176470588235" y="255.593220338983" width="105.88235294117646" height="52.881355932203384" as="geometry" />
        </mxCell>
        <mxCell id="L7CDMDjDY7MGvL0Do53L-57" value="" style="shadow=0;dashed=0;html=1;strokeColor=none;shape=mxgraph.mscae.intune.user_group;fontSize=15;fontColor=#FFFFFF;align=left;" vertex="1" parent="L7CDMDjDY7MGvL0Do53L-42">
          <mxGeometry x="52.94117647058823" y="239.728813559322" width="52.94117647058823" height="32.61016949152542" as="geometry" />
        </mxCell>
        <mxCell id="L7CDMDjDY7MGvL0Do53L-58" value="" style="html=1;shape=mxgraph.infographic.ribbonSimple;notch1=20;notch2=0;fillColor=#23445D;strokeColor=none;shadow=1;" vertex="1" parent="L7CDMDjDY7MGvL0Do53L-42">
          <mxGeometry y="317.28813559322026" width="529.4117647058822" height="88.13559322033898" as="geometry" />
        </mxCell>
        <mxCell id="L7CDMDjDY7MGvL0Do53L-59" value="" style="shape=step;perimeter=stepPerimeter;whiteSpace=wrap;html=1;fixedSize=1;shadow=0;strokeColor=none;strokeWidth=6;fillColor=#CCCCCC;size=20;" vertex="1" parent="L7CDMDjDY7MGvL0Do53L-58">
          <mxGeometry y="0.5" width="30" height="40" relative="1" as="geometry">
            <mxPoint x="150" y="-20" as="offset" />
          </mxGeometry>
        </mxCell>
        <mxCell id="L7CDMDjDY7MGvL0Do53L-60" value="&lt;font style=&quot;font-size: 22px&quot;&gt;&lt;b&gt;购物&lt;/b&gt;&lt;/font&gt;&lt;font style=&quot;font-size: 20px&quot;&gt;&lt;br&gt;&lt;/font&gt;&lt;div style=&quot;font-size: 20px&quot;&gt;&lt;font style=&quot;font-size: 20px&quot;&gt;服饰、男装、彩妆、护肤&lt;/font&gt;&lt;/div&gt;&lt;div style=&quot;font-size: 20px&quot;&gt;&lt;font style=&quot;font-size: 20px&quot;&gt;&lt;font style=&quot;font-size: 20px&quot;&gt;母婴、个护、数码、家电&lt;/font&gt;&lt;br&gt;&lt;/font&gt;&lt;/div&gt;" style="text;strokeColor=none;fillColor=none;spacing=5;spacingTop=0;whiteSpace=wrap;overflow=hidden;rounded=0;shadow=0;fontSize=15;fontColor=#FFFFFF;align=left;html=1;" vertex="1" parent="L7CDMDjDY7MGvL0Do53L-58">
          <mxGeometry width="230" height="100" relative="1" as="geometry">
            <mxPoint x="200" as="offset" />
          </mxGeometry>
        </mxCell>
        <mxCell id="L7CDMDjDY7MGvL0Do53L-61" value="Label" style="shape=manualInput;whiteSpace=wrap;html=1;shadow=1;strokeColor=none;fillColor=#dddddd;fontSize=15;fontColor=#444444;align=right;direction=south;flipH=1;shadow=1;spacing=10;fontStyle=1;" vertex="1" parent="L7CDMDjDY7MGvL0Do53L-42">
          <mxGeometry x="434.1176470588235" y="361.3559322033898" width="105.88235294117646" height="52.881355932203384" as="geometry" />
        </mxCell>
        <mxCell id="L7CDMDjDY7MGvL0Do53L-62" value="" style="shadow=0;dashed=0;html=1;strokeColor=none;shape=mxgraph.mscae.intune.user_group;fontSize=15;fontColor=#FFFFFF;align=left;" vertex="1" parent="L7CDMDjDY7MGvL0Do53L-42">
          <mxGeometry x="52.94117647058823" y="345.4915254237288" width="52.94117647058823" height="32.61016949152542" as="geometry" />
        </mxCell>
        <mxCell id="L7CDMDjDY7MGvL0Do53L-63" value="" style="html=1;shape=mxgraph.infographic.ribbonSimple;notch1=20;notch2=0;fillColor=#12AAB5;strokeColor=none;shadow=1;" vertex="1" parent="L7CDMDjDY7MGvL0Do53L-42">
          <mxGeometry y="423.05084745762707" width="529.4117647058822" height="88.13559322033898" as="geometry" />
        </mxCell>
        <mxCell id="L7CDMDjDY7MGvL0Do53L-64" value="" style="shape=step;perimeter=stepPerimeter;whiteSpace=wrap;html=1;fixedSize=1;shadow=0;strokeColor=none;strokeWidth=6;fillColor=#CCCCCC;size=20;" vertex="1" parent="L7CDMDjDY7MGvL0Do53L-63">
          <mxGeometry y="0.5" width="30" height="40" relative="1" as="geometry">
            <mxPoint x="150" y="-20" as="offset" />
          </mxGeometry>
        </mxCell>
        <mxCell id="L7CDMDjDY7MGvL0Do53L-65" value="&lt;font style=&quot;font-size: 22px&quot;&gt;假日&lt;/font&gt;&lt;br&gt;&lt;div style=&quot;font-size: 20px&quot;&gt;&lt;font style=&quot;font-size: 20px&quot;&gt;休闲、养生、旅游、桌游&lt;/font&gt;&lt;/div&gt;&lt;div style=&quot;font-size: 20px&quot;&gt;&lt;font style=&quot;font-size: 20px&quot;&gt;&lt;font style=&quot;font-size: 20px&quot;&gt;商场、约会、酒店、刷剧&lt;/font&gt;&lt;br&gt;&lt;/font&gt;&lt;/div&gt;" style="text;strokeColor=none;fillColor=none;spacing=5;spacingTop=0;whiteSpace=wrap;overflow=hidden;rounded=0;shadow=0;fontSize=15;fontColor=#FFFFFF;align=left;html=1;" vertex="1" parent="L7CDMDjDY7MGvL0Do53L-63">
          <mxGeometry width="230" height="100" relative="1" as="geometry">
            <mxPoint x="200" as="offset" />
          </mxGeometry>
        </mxCell>
        <mxCell id="L7CDMDjDY7MGvL0Do53L-66" value="Label" style="shape=manualInput;whiteSpace=wrap;html=1;shadow=1;strokeColor=none;fillColor=#dddddd;fontSize=15;fontColor=#444444;align=right;direction=south;flipH=1;shadow=1;spacing=10;fontStyle=1;" vertex="1" parent="L7CDMDjDY7MGvL0Do53L-42">
          <mxGeometry x="434.1176470588235" y="467.11864406779654" width="105.88235294117646" height="52.881355932203384" as="geometry" />
        </mxCell>
        <mxCell id="L7CDMDjDY7MGvL0Do53L-67" value="" style="shadow=0;dashed=0;html=1;strokeColor=none;shape=mxgraph.mscae.intune.user_group;fontSize=15;fontColor=#FFFFFF;align=left;" vertex="1" parent="L7CDMDjDY7MGvL0Do53L-42">
          <mxGeometry x="52.94117647058823" y="451.2542372881355" width="52.94117647058823" height="32.61016949152542" as="geometry" />
        </mxCell>
        <mxCell id="L7CDMDjDY7MGvL0Do53L-121" value="标签、核心聚合" style="text;html=1;align=center;verticalAlign=middle;resizable=0;points=[];autosize=1;strokeColor=none;fillColor=none;fontSize=26;" vertex="1" parent="L7CDMDjDY7MGvL0Do53L-125">
          <mxGeometry x="170" y="530" width="200" height="40" as="geometry" />
        </mxCell>
        <mxCell id="L7CDMDjDY7MGvL0Do53L-126" value="" style="group" vertex="1" connectable="0" parent="L7CDMDjDY7MGvL0Do53L-1">
          <mxGeometry x="2450" y="980" width="550" height="460" as="geometry" />
        </mxCell>
        <mxCell id="L7CDMDjDY7MGvL0Do53L-4" value="" style="group" vertex="1" connectable="0" parent="L7CDMDjDY7MGvL0Do53L-126">
          <mxGeometry width="550" height="400" as="geometry" />
        </mxCell>
        <mxCell id="L7CDMDjDY7MGvL0Do53L-5" value="" style="whiteSpace=wrap;html=1;fixedSize=1;size=10;fillColor=#dddddd;strokeColor=none;rounded=0;" vertex="1" parent="L7CDMDjDY7MGvL0Do53L-4">
          <mxGeometry width="550.0000000000001" height="66.66666666666667" as="geometry" />
        </mxCell>
        <mxCell id="L7CDMDjDY7MGvL0Do53L-6" value="&lt;font style=&quot;font-size: 25px&quot;&gt;65%&lt;/font&gt;" style="html=1;shape=mxgraph.infographic.ribbonSimple;notch1=0;notch2=20;fillColor=#10739E;strokeColor=none;align=left;verticalAlign=middle;fontColor=#ffffff;fontSize=18;spacingLeft=10;fontStyle=1;shadow=0;" vertex="1" parent="L7CDMDjDY7MGvL0Do53L-4">
          <mxGeometry width="357.5" height="66.66666666666667" as="geometry" />
        </mxCell>
        <mxCell id="L7CDMDjDY7MGvL0Do53L-7" value="" style="whiteSpace=wrap;html=1;fixedSize=1;size=10;fillColor=#dddddd;strokeColor=none;rounded=0;" vertex="1" parent="L7CDMDjDY7MGvL0Do53L-4">
          <mxGeometry y="83.33333333333333" width="550.0000000000001" height="66.66666666666667" as="geometry" />
        </mxCell>
        <mxCell id="L7CDMDjDY7MGvL0Do53L-8" value="&lt;font style=&quot;font-size: 25px&quot;&gt;45%&lt;/font&gt;" style="html=1;shape=mxgraph.infographic.ribbonSimple;notch1=0;notch2=20;fillColor=#F2931E;strokeColor=none;align=left;verticalAlign=middle;fontColor=#ffffff;fontSize=18;spacingLeft=10;fontStyle=1;shadow=0;" vertex="1" parent="L7CDMDjDY7MGvL0Do53L-4">
          <mxGeometry y="83.33333333333333" width="247.50000000000006" height="66.66666666666667" as="geometry" />
        </mxCell>
        <mxCell id="L7CDMDjDY7MGvL0Do53L-9" value="" style="whiteSpace=wrap;html=1;fixedSize=1;size=10;fillColor=#dddddd;strokeColor=none;rounded=0;" vertex="1" parent="L7CDMDjDY7MGvL0Do53L-4">
          <mxGeometry y="166.66666666666666" width="550.0000000000001" height="66.66666666666667" as="geometry" />
        </mxCell>
        <mxCell id="L7CDMDjDY7MGvL0Do53L-10" value="&lt;font style=&quot;font-size: 25px&quot;&gt;30%&lt;/font&gt;" style="html=1;shape=mxgraph.infographic.ribbonSimple;notch1=0;notch2=20;fillColor=#AE4132;strokeColor=none;align=left;verticalAlign=middle;fontColor=#ffffff;fontSize=18;spacingLeft=10;fontStyle=1;shadow=0;" vertex="1" parent="L7CDMDjDY7MGvL0Do53L-4">
          <mxGeometry y="166.66666666666666" width="165" height="66.66666666666667" as="geometry" />
        </mxCell>
        <mxCell id="L7CDMDjDY7MGvL0Do53L-11" value="" style="whiteSpace=wrap;html=1;fixedSize=1;size=10;fillColor=#dddddd;strokeColor=none;rounded=0;" vertex="1" parent="L7CDMDjDY7MGvL0Do53L-4">
          <mxGeometry y="250" width="550.0000000000001" height="66.66666666666667" as="geometry" />
        </mxCell>
        <mxCell id="L7CDMDjDY7MGvL0Do53L-12" value="&lt;font style=&quot;font-size: 25px&quot;&gt;60%&lt;/font&gt;" style="html=1;shape=mxgraph.infographic.ribbonSimple;notch1=0;notch2=20;fillColor=#23445D;strokeColor=none;align=left;verticalAlign=middle;fontColor=#ffffff;fontSize=18;spacingLeft=10;fontStyle=1;shadow=0;" vertex="1" parent="L7CDMDjDY7MGvL0Do53L-4">
          <mxGeometry y="250" width="330" height="66.66666666666667" as="geometry" />
        </mxCell>
        <mxCell id="L7CDMDjDY7MGvL0Do53L-13" value="" style="whiteSpace=wrap;html=1;fixedSize=1;size=10;fillColor=#dddddd;strokeColor=none;rounded=0;" vertex="1" parent="L7CDMDjDY7MGvL0Do53L-4">
          <mxGeometry y="333.3333333333333" width="550.0000000000001" height="66.66666666666667" as="geometry" />
        </mxCell>
        <mxCell id="L7CDMDjDY7MGvL0Do53L-14" value="&lt;font style=&quot;font-size: 25px&quot;&gt;85%&lt;/font&gt;" style="html=1;shape=mxgraph.infographic.ribbonSimple;notch1=0;notch2=20;fillColor=#12AAB5;strokeColor=none;align=left;verticalAlign=middle;fontColor=#ffffff;fontSize=18;spacingLeft=10;fontStyle=1;shadow=0;" vertex="1" parent="L7CDMDjDY7MGvL0Do53L-4">
          <mxGeometry y="333.3333333333333" width="467.50000000000006" height="66.66666666666667" as="geometry" />
        </mxCell>
        <mxCell id="L7CDMDjDY7MGvL0Do53L-15" value="&lt;font style=&quot;font-size: 25px&quot;&gt;场景10&lt;/font&gt;" style="text;html=1;strokeColor=none;fillColor=none;align=right;verticalAlign=middle;whiteSpace=wrap;rounded=0;shadow=0;fontSize=18;spacingRight=10;" vertex="1" parent="L7CDMDjDY7MGvL0Do53L-4">
          <mxGeometry x="440" width="110" height="66.66666666666667" as="geometry" />
        </mxCell>
        <mxCell id="L7CDMDjDY7MGvL0Do53L-16" value="&lt;font style=&quot;font-size: 25px&quot;&gt;场景81&lt;/font&gt;" style="text;html=1;strokeColor=none;fillColor=none;align=right;verticalAlign=middle;whiteSpace=wrap;rounded=0;shadow=0;fontSize=18;spacingRight=10;" vertex="1" parent="L7CDMDjDY7MGvL0Do53L-4">
          <mxGeometry x="440" y="83.33333333333333" width="110" height="66.66666666666667" as="geometry" />
        </mxCell>
        <mxCell id="L7CDMDjDY7MGvL0Do53L-17" value="&lt;font style=&quot;font-size: 25px&quot;&gt;场景177&lt;/font&gt;" style="text;html=1;strokeColor=none;fillColor=none;align=right;verticalAlign=middle;whiteSpace=wrap;rounded=0;shadow=0;fontSize=18;spacingRight=10;" vertex="1" parent="L7CDMDjDY7MGvL0Do53L-4">
          <mxGeometry x="440" y="166.66666666666666" width="110" height="66.66666666666667" as="geometry" />
        </mxCell>
        <mxCell id="L7CDMDjDY7MGvL0Do53L-18" value="&lt;font style=&quot;font-size: 25px&quot;&gt;场景18&lt;/font&gt;" style="text;html=1;strokeColor=none;fillColor=none;align=right;verticalAlign=middle;whiteSpace=wrap;rounded=0;shadow=0;fontSize=18;spacingRight=10;" vertex="1" parent="L7CDMDjDY7MGvL0Do53L-4">
          <mxGeometry x="440" y="250" width="110" height="66.66666666666667" as="geometry" />
        </mxCell>
        <mxCell id="L7CDMDjDY7MGvL0Do53L-19" value="&lt;font style=&quot;font-size: 25px&quot;&gt;场景5&lt;/font&gt;" style="text;html=1;strokeColor=none;fillColor=none;align=right;verticalAlign=middle;whiteSpace=wrap;rounded=0;shadow=0;fontSize=18;spacingRight=10;" vertex="1" parent="L7CDMDjDY7MGvL0Do53L-4">
          <mxGeometry x="440" y="333.3333333333333" width="110" height="66.66666666666667" as="geometry" />
        </mxCell>
        <mxCell id="L7CDMDjDY7MGvL0Do53L-122" value="场景拟合" style="text;html=1;align=center;verticalAlign=middle;resizable=0;points=[];autosize=1;strokeColor=none;fillColor=none;fontSize=26;" vertex="1" parent="L7CDMDjDY7MGvL0Do53L-126">
          <mxGeometry x="140" y="420" width="120" height="40" as="geometry" />
        </mxCell>
        <mxCell id="L7CDMDjDY7MGvL0Do53L-127" value="" style="group" vertex="1" connectable="0" parent="L7CDMDjDY7MGvL0Do53L-1">
          <mxGeometry x="1700" y="1930" width="420" height="344.80999999999995" as="geometry" />
        </mxCell>
        <mxCell id="L7CDMDjDY7MGvL0Do53L-94" value="模型优化+阈值调整" style="text;html=1;strokeColor=none;fillColor=none;align=center;verticalAlign=middle;whiteSpace=wrap;rounded=0;fontSize=26;" vertex="1" parent="L7CDMDjDY7MGvL0Do53L-127">
          <mxGeometry x="86.5" y="300" width="280" height="44.81" as="geometry" />
        </mxCell>
        <mxCell id="L7CDMDjDY7MGvL0Do53L-95" value="" style="group" vertex="1" connectable="0" parent="L7CDMDjDY7MGvL0Do53L-127">
          <mxGeometry width="420" height="260" as="geometry" />
        </mxCell>
        <mxCell id="L7CDMDjDY7MGvL0Do53L-96" value="" style="fillColor=#10739E;strokeColor=none;fontSize=26;" vertex="1" parent="L7CDMDjDY7MGvL0Do53L-95">
          <mxGeometry y="60.00000000000021" width="74.11764705882351" height="200.00000000000003" as="geometry" />
        </mxCell>
        <mxCell id="L7CDMDjDY7MGvL0Do53L-97" value="" style="shape=mxgraph.arrows2.arrow;dy=0.4;dx=16;notch=0;direction=north;fillColor=#1699D3;strokeColor=none;" vertex="1" parent="L7CDMDjDY7MGvL0Do53L-96">
          <mxGeometry x="7.411764705882352" y="60.000000000000014" width="59.29411764705882" height="140.00000000000003" as="geometry" />
        </mxCell>
        <mxCell id="L7CDMDjDY7MGvL0Do53L-98" value="" style="fillColor=#F2931E;strokeColor=none;fontSize=26;" vertex="1" parent="L7CDMDjDY7MGvL0Do53L-95">
          <mxGeometry x="86.47058823529406" y="20.00000000000025" width="74.11764705882351" height="240.00000000000003" as="geometry" />
        </mxCell>
        <mxCell id="L7CDMDjDY7MGvL0Do53L-99" value="" style="shape=mxgraph.arrows2.arrow;dy=0.4;dx=16;notch=0;direction=south;fillColor=#F5AB50;strokeColor=none;" vertex="1" parent="L7CDMDjDY7MGvL0Do53L-98">
          <mxGeometry x="7.411764705882352" width="59.29411764705882" height="160" as="geometry" />
        </mxCell>
        <mxCell id="L7CDMDjDY7MGvL0Do53L-100" value="" style="fillColor=#AE4132;strokeColor=none;fontSize=26;" vertex="1" parent="L7CDMDjDY7MGvL0Do53L-95">
          <mxGeometry x="172.94117647058826" width="74.11764705882351" height="260.00000000000006" as="geometry" />
        </mxCell>
        <mxCell id="L7CDMDjDY7MGvL0Do53L-101" value="" style="shape=mxgraph.arrows2.arrow;dy=0.4;dx=16;notch=0;direction=north;fillColor=#E85642;strokeColor=none;" vertex="1" parent="L7CDMDjDY7MGvL0Do53L-100">
          <mxGeometry x="7.411764705882352" y="160" width="59.29411764705882" height="100.00000000000001" as="geometry" />
        </mxCell>
        <mxCell id="L7CDMDjDY7MGvL0Do53L-102" value="" style="fillColor=#12AAB5;strokeColor=none;fontSize=26;" vertex="1" parent="L7CDMDjDY7MGvL0Do53L-95">
          <mxGeometry x="259.4117647058823" y="100.00000000000017" width="74.11764705882351" height="160" as="geometry" />
        </mxCell>
        <mxCell id="L7CDMDjDY7MGvL0Do53L-103" value="" style="shape=mxgraph.arrows2.arrow;dy=0.4;dx=16;notch=0;direction=south;fillColor=#64BBE2;strokeColor=none;" vertex="1" parent="L7CDMDjDY7MGvL0Do53L-102">
          <mxGeometry x="7.411764705882352" width="59.29411764705882" height="60.00000000000001" as="geometry" />
        </mxCell>
        <mxCell id="L7CDMDjDY7MGvL0Do53L-104" value="" style="fillColor=#23445D;strokeColor=none;fontSize=26;" vertex="1" parent="L7CDMDjDY7MGvL0Do53L-95">
          <mxGeometry x="345.8823529411765" y="119.99999999999989" width="74.11764705882351" height="140" as="geometry" />
        </mxCell>
        <mxCell id="L7CDMDjDY7MGvL0Do53L-105" value="" style="shape=mxgraph.arrows2.arrow;dy=0.4;dx=16;notch=0;direction=north;fillColor=#2F5B7C;strokeColor=none;" vertex="1" parent="L7CDMDjDY7MGvL0Do53L-104">
          <mxGeometry x="7.411764705882352" y="19.999999999999996" width="59.29411764705882" height="120" as="geometry" />
        </mxCell>
        <mxCell id="L7CDMDjDY7MGvL0Do53L-128" value="" style="shape=flexArrow;endArrow=classic;html=1;" edge="1" parent="L7CDMDjDY7MGvL0Do53L-1">
          <mxGeometry width="50" height="50" relative="1" as="geometry">
            <mxPoint x="360" y="2280" as="sourcePoint" />
            <mxPoint x="210" y="2280" as="targetPoint" />
          </mxGeometry>
        </mxCell>
        <mxCell id="L7CDMDjDY7MGvL0Do53L-129" value="" style="shape=flexArrow;endArrow=classic;html=1;" edge="1" parent="L7CDMDjDY7MGvL0Do53L-1">
          <mxGeometry width="50" height="50" relative="1" as="geometry">
            <mxPoint x="-463.5" y="2237.5" as="sourcePoint" />
            <mxPoint x="-300" y="2238" as="targetPoint" />
          </mxGeometry>
        </mxCell>
        <mxCell id="L7CDMDjDY7MGvL0Do53L-131" value="" style="verticalLabelPosition=bottom;verticalAlign=top;html=1;shape=mxgraph.basic.partConcEllipse;fillColor=#10739E;strokeColor=none;startAngle=0.22879630392435749;endAngle=0.1;arcWidth=0.48;fontSize=22;" vertex="1" parent="L7CDMDjDY7MGvL0Do53L-1">
          <mxGeometry x="-240" y="600" width="290" height="260" as="geometry" />
        </mxCell>
        <mxCell id="L7CDMDjDY7MGvL0Do53L-132" value="方法" style="text;html=1;align=center;verticalAlign=middle;resizable=0;points=[];autosize=1;strokeColor=none;fillColor=none;fontSize=22;" vertex="1" parent="L7CDMDjDY7MGvL0Do53L-1">
          <mxGeometry x="-150" y="725" width="60" height="30" as="geometry" />
        </mxCell>
      </root>
    </mxGraphModel>
  </diagram>
</mxfile>
